<svg width="533" height="224" viewBox="0 0 533 224" fill="none" xmlns="http://www.w3.org/2000/svg">
<rect width="453" height="144" transform="translate(40 40)" fill="#1E0044"/>
<path d="M72.015 86.45C67.995 86.45 64.44 86.12 61.35 85.46V80.15C63.45 80.63 65.175 80.975 66.525 81.185C67.875 81.365 69.345 81.455 70.935 81.455C73.215 81.455 74.79 81.23 75.66 80.78C76.53 80.3 76.965 79.55 76.965 78.53V75.695C76.965 74.765 76.5 74.165 75.57 73.895C74.67 73.625 73.23 73.49 71.25 73.49H65.445V68.495H71.25C72.57 68.495 73.56 68.405 74.22 68.225C74.88 68.045 75.33 67.79 75.57 67.46C75.81 67.1 75.93 66.59 75.93 65.93V63.635C75.93 62.705 75.57 62.09 74.85 61.79C74.13 61.49 72.825 61.34 70.935 61.34C68.445 61.34 65.445 61.775 61.935 62.645V57.38C65.595 56.69 69.03 56.345 72.24 56.345C76.02 56.345 78.75 56.78 80.43 57.65C82.11 58.49 82.95 59.96 82.95 62.06V66.74C82.95 67.61 82.65 68.375 82.05 69.035C81.45 69.665 80.73 70.085 79.89 70.295V70.43C82.62 71.21 83.985 72.665 83.985 74.795V79.52C83.985 81.83 82.965 83.57 80.925 84.74C78.915 85.88 75.945 86.45 72.015 86.45ZM95.6091 86.45C93.5691 86.45 92.0391 86.27 91.0191 85.91C90.0291 85.52 89.3241 84.845 88.9041 83.885C88.5141 82.895 88.3191 81.425 88.3191 79.475C88.3191 77.735 88.5291 76.37 88.9491 75.38C89.3991 74.39 90.1041 73.685 91.0641 73.265C92.0541 72.815 93.4041 72.59 95.1141 72.59H102.494V71.105C102.494 70.175 102.359 69.485 102.089 69.035C101.849 68.585 101.384 68.27 100.694 68.09C100.034 67.91 99.0291 67.82 97.6791 67.82C95.8191 67.82 93.2691 68 90.0291 68.36V64.22C92.3991 63.92 95.1741 63.77 98.3541 63.77C101.144 63.77 103.289 63.98 104.789 64.4C106.319 64.82 107.414 65.54 108.074 66.56C108.734 67.58 109.064 69.065 109.064 71.015V86H102.629V84.02C102.119 84.89 101.429 85.505 100.559 85.865C99.6891 86.255 98.0391 86.45 95.6091 86.45ZM98.1741 82.355C99.4941 82.355 100.439 82.31 101.009 82.22C101.429 82.16 101.714 82.07 101.864 81.95C102.044 81.83 102.194 81.635 102.314 81.365C102.434 81.155 102.494 80.84 102.494 80.42V76.19H97.9941C96.9741 76.19 96.2541 76.265 95.8341 76.415C95.4141 76.535 95.1291 76.805 94.9791 77.225C94.8291 77.615 94.7541 78.32 94.7541 79.34C94.7541 80.33 94.8291 81.02 94.9791 81.41C95.1291 81.8 95.4141 82.055 95.8341 82.175C96.2841 82.295 97.0641 82.355 98.1741 82.355ZM115.744 64.22H131.629V68.54H122.314V86H115.744V64.22ZM146.728 86.45C145.378 86.45 144.268 86.405 143.398 86.315C142.528 86.225 141.598 86.045 140.608 85.775C139.528 85.475 138.658 85.055 137.998 84.515C137.338 83.945 136.783 83.15 136.333 82.13C135.883 81.14 135.658 79.94 135.658 78.53V72.095C135.658 70.655 135.883 69.395 136.333 68.315C136.783 67.235 137.368 66.395 138.088 65.795C138.718 65.285 139.543 64.865 140.563 64.535C141.613 64.175 142.633 63.95 143.623 63.86C144.763 63.8 145.798 63.77 146.728 63.77C148.108 63.77 149.203 63.815 150.013 63.905C150.853 63.965 151.768 64.145 152.758 64.445C153.838 64.775 154.708 65.225 155.368 65.795C156.058 66.365 156.643 67.175 157.123 68.225C157.573 69.305 157.798 70.595 157.798 72.095V78.53C157.798 79.88 157.573 81.065 157.123 82.085C156.703 83.105 156.148 83.9 155.458 84.47C154.858 84.98 154.033 85.4 152.983 85.73C151.963 86.03 150.958 86.225 149.968 86.315C149.068 86.405 147.988 86.45 146.728 86.45ZM146.728 82.355C147.958 82.355 148.888 82.265 149.518 82.085C150.148 81.875 150.583 81.56 150.823 81.14C151.093 80.72 151.228 80.105 151.228 79.295V71.06C151.228 69.86 150.913 69.02 150.283 68.54C149.653 68.06 148.468 67.82 146.728 67.82C144.988 67.82 143.803 68.06 143.173 68.54C142.543 69.02 142.228 69.86 142.228 71.06V79.295C142.228 80.105 142.348 80.72 142.588 81.14C142.858 81.56 143.308 81.875 143.938 82.085C144.568 82.265 145.498 82.355 146.728 82.355ZM164.809 86.36C164.149 86.36 163.369 86.27 162.469 86.09V81.23C162.829 81.29 163.204 81.32 163.594 81.32C164.704 81.32 165.604 80.975 166.294 80.285C166.984 79.595 167.509 78.245 167.869 76.235C168.259 74.225 168.454 71.315 168.454 67.505V64.22H185.509V86H178.939V68.405H173.944V68.945C173.944 73.595 173.539 77.195 172.729 79.745C171.919 82.295 170.854 84.035 169.534 84.965C168.214 85.895 166.639 86.36 164.809 86.36ZM202.625 86.45C201.275 86.45 200.165 86.405 199.295 86.315C198.425 86.225 197.495 86.045 196.505 85.775C195.425 85.475 194.555 85.055 193.895 84.515C193.235 83.945 192.68 83.15 192.23 82.13C191.78 81.14 191.555 79.94 191.555 78.53V72.095C191.555 70.655 191.78 69.395 192.23 68.315C192.68 67.235 193.265 66.395 193.985 65.795C194.615 65.285 195.44 64.865 196.46 64.535C197.51 64.175 198.53 63.95 199.52 63.86C200.66 63.8 201.695 63.77 202.625 63.77C204.005 63.77 205.1 63.815 205.91 63.905C206.75 63.965 207.665 64.145 208.655 64.445C209.735 64.775 210.605 65.225 211.265 65.795C211.955 66.365 212.54 67.175 213.02 68.225C213.47 69.305 213.695 70.595 213.695 72.095V78.53C213.695 79.88 213.47 81.065 213.02 82.085C212.6 83.105 212.045 83.9 211.355 84.47C210.755 84.98 209.93 85.4 208.88 85.73C207.86 86.03 206.855 86.225 205.865 86.315C204.965 86.405 203.885 86.45 202.625 86.45ZM202.625 82.355C203.855 82.355 204.785 82.265 205.415 82.085C206.045 81.875 206.48 81.56 206.72 81.14C206.99 80.72 207.125 80.105 207.125 79.295V71.06C207.125 69.86 206.81 69.02 206.18 68.54C205.55 68.06 204.365 67.82 202.625 67.82C200.885 67.82 199.7 68.06 199.07 68.54C198.44 69.02 198.125 69.86 198.125 71.06V79.295C198.125 80.105 198.245 80.72 198.485 81.14C198.755 81.56 199.205 81.875 199.835 82.085C200.465 82.265 201.395 82.355 202.625 82.355ZM219.716 64.22H231.776C234.146 64.22 235.931 64.415 237.131 64.805C238.331 65.195 239.111 65.765 239.471 66.515C239.861 67.235 240.056 68.24 240.056 69.53V70.295C240.056 71.435 239.726 72.29 239.066 72.86C238.436 73.43 237.416 73.865 236.006 74.165V74.345C237.656 74.615 238.931 75.14 239.831 75.92C240.731 76.7 241.181 77.705 241.181 78.935V80.24C241.181 82.22 240.446 83.675 238.976 84.605C237.506 85.535 235.091 86 231.731 86H219.716V64.22ZM229.481 72.815C230.651 72.815 231.521 72.74 232.091 72.59C232.661 72.44 233.051 72.215 233.261 71.915C233.471 71.585 233.576 71.105 233.576 70.475V69.935C233.576 69.365 233.306 68.93 232.766 68.63C232.256 68.33 231.116 68.18 229.346 68.18H226.196V72.815H229.481ZM229.616 82.04C231.446 82.04 232.736 81.845 233.486 81.455C234.236 81.065 234.611 80.45 234.611 79.61V78.8C234.611 78.23 234.461 77.795 234.161 77.495C233.891 77.195 233.426 76.985 232.766 76.865C232.106 76.745 231.131 76.685 229.841 76.685H226.196V82.04H229.616ZM257.203 86.45C255.853 86.45 254.743 86.405 253.873 86.315C253.003 86.225 252.073 86.045 251.083 85.775C250.003 85.475 249.133 85.055 248.473 84.515C247.813 83.945 247.258 83.15 246.808 82.13C246.358 81.14 246.133 79.94 246.133 78.53V72.095C246.133 70.655 246.358 69.395 246.808 68.315C247.258 67.235 247.843 66.395 248.563 65.795C249.193 65.285 250.018 64.865 251.038 64.535C252.088 64.175 253.108 63.95 254.098 63.86C255.238 63.8 256.273 63.77 257.203 63.77C258.583 63.77 259.678 63.815 260.488 63.905C261.328 63.965 262.243 64.145 263.233 64.445C264.313 64.775 265.183 65.225 265.843 65.795C266.533 66.365 267.118 67.175 267.598 68.225C268.048 69.305 268.273 70.595 268.273 72.095V78.53C268.273 79.88 268.048 81.065 267.598 82.085C267.178 83.105 266.623 83.9 265.933 84.47C265.333 84.98 264.508 85.4 263.458 85.73C262.438 86.03 261.433 86.225 260.443 86.315C259.543 86.405 258.463 86.45 257.203 86.45ZM257.203 82.355C258.433 82.355 259.363 82.265 259.993 82.085C260.623 81.875 261.058 81.56 261.298 81.14C261.568 80.72 261.703 80.105 261.703 79.295V71.06C261.703 69.86 261.388 69.02 260.758 68.54C260.128 68.06 258.943 67.82 257.203 67.82C255.463 67.82 254.278 68.06 253.648 68.54C253.018 69.02 252.703 69.86 252.703 71.06V79.295C252.703 80.105 252.823 80.72 253.063 81.14C253.333 81.56 253.783 81.875 254.413 82.085C255.043 82.265 255.973 82.355 257.203 82.355ZM274.294 64.22H280.864V73.04C281.344 73.04 281.734 72.98 282.034 72.86C282.334 72.71 282.634 72.455 282.934 72.095L289.234 64.22H296.074L287.344 74.3C288.574 74.87 289.774 75.995 290.944 77.675L296.749 86H289.189L284.374 78.89C283.834 78.11 283.324 77.615 282.844 77.405C282.364 77.195 281.704 77.09 280.864 77.09V86H274.294V64.22ZM309.46 63.68L301.495 68.09V62.555L310.72 56.795H316.03V86H309.46V63.68ZM337.745 70.61H351.605V75.65H337.745V70.61ZM380.232 80.105H366.732V74.93L378.747 56.795H386.172V75.38H389.322V80.105H386.172V86H380.232V80.105ZM380.232 75.38V63.005L372.357 75.38H380.232ZM404.626 86.45C402.556 86.45 399.451 86.285 395.311 85.955V80.51C399.031 81.2 401.836 81.545 403.726 81.545C405.376 81.545 406.576 81.365 407.326 81.005C408.076 80.615 408.451 80.015 408.451 79.205V74.84C408.451 74.03 408.181 73.46 407.641 73.13C407.101 72.77 406.216 72.59 404.986 72.59H395.986V56.795H414.436V61.835H402.556V67.775H407.146C408.886 67.775 410.581 68.105 412.231 68.765C413.131 69.155 413.851 69.755 414.391 70.565C414.931 71.375 415.201 72.32 415.201 73.4V79.52C415.201 80.69 414.976 81.74 414.526 82.67C414.076 83.57 413.506 84.26 412.816 84.74C412.216 85.19 411.406 85.55 410.386 85.82C409.396 86.09 408.436 86.27 407.506 86.36C406.426 86.42 405.466 86.45 404.626 86.45ZM422.449 64.22H428.659V66.38C429.049 65.42 429.814 64.745 430.954 64.355C432.094 63.965 433.789 63.77 436.039 63.77C437.929 63.77 439.444 63.92 440.584 64.22C441.754 64.52 442.639 65 443.239 65.66C443.809 66.32 444.199 67.055 444.409 67.865C444.619 68.645 444.724 69.725 444.724 71.105V78.26C444.724 80.42 444.409 82.085 443.779 83.255C443.149 84.425 442.174 85.25 440.854 85.73C439.564 86.21 437.794 86.45 435.544 86.45C433.384 86.45 431.824 86.27 430.864 85.91C429.904 85.55 429.289 84.845 429.019 83.795V95.36H422.449V64.22ZM433.519 82.355C434.809 82.355 435.784 82.265 436.444 82.085C437.104 81.905 437.554 81.59 437.794 81.14C438.034 80.69 438.154 80.015 438.154 79.115V71.06C438.154 70.07 438.049 69.365 437.839 68.945C437.629 68.495 437.209 68.195 436.579 68.045C435.949 67.895 434.914 67.82 433.474 67.82C432.244 67.82 431.299 67.925 430.639 68.135C430.009 68.345 429.574 68.675 429.334 69.125C429.124 69.575 429.019 70.22 429.019 71.06V79.115C429.019 80.015 429.124 80.69 429.334 81.14C429.574 81.59 430.009 81.905 430.639 82.085C431.269 82.265 432.229 82.355 433.519 82.355ZM456.891 74.84L448.791 64.22H456.396L460.671 70.475L464.991 64.22H472.596L464.451 74.84L473.046 86H465.441L460.671 79.16L455.946 86H448.341L456.891 74.84Z" fill="white"/>
<path d="M63.024 109.636H81.708V133H78.216V112.048H66.516V133H63.024V109.636ZM95.6228 133.36C94.0868 133.36 92.9348 133.3 92.1668 133.18C91.3988 133.084 90.6308 132.856 89.8628 132.496C89.0708 132.136 88.4948 131.56 88.1348 130.768C87.7748 129.952 87.5948 128.86 87.5948 127.492V121.444C87.5948 120.364 87.7268 119.416 87.9908 118.6C88.2548 117.784 88.6028 117.148 89.0348 116.692C89.3948 116.284 89.9348 115.972 90.6548 115.756C91.3988 115.516 92.1548 115.36 92.9228 115.288C93.7868 115.24 94.6868 115.216 95.6228 115.216C96.8708 115.216 97.8068 115.252 98.4308 115.324C99.0788 115.372 99.7628 115.492 100.483 115.684C101.227 115.9 101.803 116.224 102.211 116.656C102.619 117.088 102.967 117.712 103.255 118.528C103.519 119.368 103.651 120.34 103.651 121.444V127.492C103.651 129.532 103.183 131.02 102.247 131.956C101.863 132.34 101.311 132.64 100.591 132.856C99.8708 133.072 99.1268 133.216 98.3588 133.288C97.4468 133.336 96.5348 133.36 95.6228 133.36ZM95.6228 131.236C96.6308 131.236 97.3628 131.212 97.8188 131.164C98.2748 131.116 98.7188 130.984 99.1508 130.768C99.5828 130.576 99.8828 130.264 100.051 129.832C100.243 129.376 100.339 128.752 100.339 127.96V120.904C100.339 119.824 100.207 119.044 99.9428 118.564C99.6788 118.06 99.2228 117.736 98.5748 117.592C97.9508 117.424 96.9668 117.34 95.6228 117.34C94.2788 117.34 93.2828 117.424 92.6348 117.592C92.0108 117.736 91.5668 118.06 91.3028 118.564C91.0388 119.044 90.9068 119.824 90.9068 120.904V127.96C90.9068 128.752 90.9908 129.376 91.1588 129.832C91.3508 130.264 91.6628 130.576 92.0948 130.768C92.5268 130.984 92.9708 131.116 93.4268 131.164C93.8828 131.212 94.6148 131.236 95.6228 131.236ZM125.948 130.876V137.824H123.176V133H109.748V137.824H106.976V130.876H108.092C108.62 130.876 109.136 130.48 109.64 129.688C110.144 128.872 110.564 127.576 110.9 125.8C111.236 124 111.404 121.72 111.404 118.96V115.576H123.5V130.876H125.948ZM120.26 130.876V117.7H114.248V120.22C114.248 122.716 114.08 124.864 113.744 126.664C113.432 128.44 112.844 129.844 111.98 130.876H120.26ZM134.458 133.36C133.042 133.36 131.41 133.156 129.562 132.748V130.192C131.362 130.72 132.994 130.984 134.458 130.984C136.114 130.984 137.326 130.804 138.094 130.444C138.862 130.06 139.246 129.34 139.246 128.284V127.168C139.246 126.28 138.85 125.692 138.058 125.404C137.29 125.092 136.198 124.936 134.782 124.936H132.802V122.704H134.17C135.634 122.704 136.75 122.536 137.518 122.2C138.286 121.864 138.67 121.264 138.67 120.4V119.32C138.67 118.072 137.23 117.448 134.35 117.448C132.838 117.448 131.362 117.592 129.922 117.88V115.54C131.29 115.324 132.754 115.216 134.314 115.216C136.162 115.216 137.602 115.312 138.634 115.504C139.666 115.696 140.47 116.056 141.046 116.584C141.646 117.112 141.946 117.964 141.946 119.14V120.544C141.946 121.312 141.658 121.948 141.082 122.452C140.53 122.932 139.81 123.244 138.922 123.388V123.532C141.394 123.916 142.63 124.984 142.63 126.736V128.536C142.63 129.352 142.462 130.084 142.126 130.732C141.814 131.356 141.394 131.836 140.866 132.172C140.146 132.628 139.234 132.94 138.13 133.108C137.05 133.276 135.826 133.36 134.458 133.36ZM153.669 133.36C152.013 133.36 150.729 133.204 149.817 132.892C148.929 132.58 148.281 132.028 147.873 131.236C147.489 130.444 147.297 129.304 147.297 127.816C147.297 126.496 147.477 125.476 147.837 124.756C148.221 124.012 148.857 123.484 149.745 123.172C150.657 122.86 151.941 122.704 153.597 122.704H158.817V119.932C158.817 119.284 158.685 118.792 158.421 118.456C158.181 118.096 157.761 117.844 157.161 117.7C156.585 117.556 155.733 117.484 154.605 117.484C152.805 117.484 150.813 117.628 148.629 117.916V115.54C151.005 115.324 153.153 115.216 155.073 115.216C157.089 115.216 158.577 115.372 159.537 115.684C160.497 115.972 161.157 116.488 161.517 117.232C161.877 117.976 162.057 119.128 162.057 120.688V133H158.925V131.344C158.661 132.688 156.909 133.36 153.669 133.36ZM154.209 131.236C155.385 131.236 156.381 131.152 157.197 130.984C158.277 130.768 158.817 130.264 158.817 129.472V124.72H153.813C152.781 124.72 152.037 124.804 151.581 124.972C151.125 125.116 150.825 125.404 150.681 125.836C150.537 126.268 150.465 126.964 150.465 127.924C150.465 128.788 150.549 129.46 150.717 129.94C150.885 130.396 151.185 130.732 151.617 130.948C152.049 131.14 152.697 131.236 153.561 131.236H154.209ZM168.612 115.576H179.988V117.952H171.852V133H168.612V115.576ZM191.613 133.36C190.077 133.36 188.925 133.3 188.157 133.18C187.389 133.084 186.621 132.856 185.853 132.496C185.061 132.136 184.485 131.56 184.125 130.768C183.765 129.952 183.585 128.86 183.585 127.492V121.444C183.585 120.364 183.717 119.416 183.981 118.6C184.245 117.784 184.593 117.148 185.025 116.692C185.385 116.284 185.925 115.972 186.645 115.756C187.389 115.516 188.145 115.36 188.913 115.288C189.777 115.24 190.677 115.216 191.613 115.216C192.861 115.216 193.797 115.252 194.421 115.324C195.069 115.372 195.753 115.492 196.473 115.684C197.217 115.9 197.793 116.224 198.201 116.656C198.609 117.088 198.957 117.712 199.245 118.528C199.509 119.368 199.641 120.34 199.641 121.444V127.492C199.641 129.532 199.173 131.02 198.237 131.956C197.853 132.34 197.301 132.64 196.581 132.856C195.861 133.072 195.117 133.216 194.349 133.288C193.437 133.336 192.525 133.36 191.613 133.36ZM191.613 131.236C192.621 131.236 193.353 131.212 193.809 131.164C194.265 131.116 194.709 130.984 195.141 130.768C195.573 130.576 195.873 130.264 196.041 129.832C196.233 129.376 196.329 128.752 196.329 127.96V120.904C196.329 119.824 196.197 119.044 195.933 118.564C195.669 118.06 195.213 117.736 194.565 117.592C193.941 117.424 192.957 117.34 191.613 117.34C190.269 117.34 189.273 117.424 188.625 117.592C188.001 117.736 187.557 118.06 187.293 118.564C187.029 119.044 186.897 119.824 186.897 120.904V127.96C186.897 128.752 186.981 129.376 187.149 129.832C187.341 130.264 187.653 130.576 188.085 130.768C188.517 130.984 188.961 131.116 189.417 131.164C189.873 131.212 190.605 131.236 191.613 131.236ZM204.73 133.036C204.37 133.036 204.022 133 203.686 132.928V130.156C204.022 130.228 204.358 130.264 204.694 130.264C205.726 130.264 206.542 129.52 207.142 128.032C207.766 126.52 208.078 123.736 208.078 119.68V115.576H219.922V133H216.682V117.7H210.958V120.22C210.958 124.18 210.49 127.312 209.554 129.616C208.618 131.896 207.01 133.036 204.73 133.036ZM233.624 133.36C232.088 133.36 230.936 133.3 230.168 133.18C229.4 133.084 228.632 132.856 227.864 132.496C227.072 132.136 226.496 131.56 226.136 130.768C225.776 129.952 225.596 128.86 225.596 127.492V121.444C225.596 120.364 225.728 119.416 225.992 118.6C226.256 117.784 226.604 117.148 227.036 116.692C227.396 116.284 227.936 115.972 228.656 115.756C229.4 115.516 230.156 115.36 230.924 115.288C231.788 115.24 232.688 115.216 233.624 115.216C234.872 115.216 235.808 115.252 236.432 115.324C237.08 115.372 237.764 115.492 238.484 115.684C239.228 115.9 239.804 116.224 240.212 116.656C240.62 117.088 240.968 117.712 241.256 118.528C241.52 119.368 241.652 120.34 241.652 121.444V127.492C241.652 129.532 241.184 131.02 240.248 131.956C239.864 132.34 239.312 132.64 238.592 132.856C237.872 133.072 237.128 133.216 236.36 133.288C235.448 133.336 234.536 133.36 233.624 133.36ZM233.624 131.236C234.632 131.236 235.364 131.212 235.82 131.164C236.276 131.116 236.72 130.984 237.152 130.768C237.584 130.576 237.884 130.264 238.052 129.832C238.244 129.376 238.34 128.752 238.34 127.96V120.904C238.34 119.824 238.208 119.044 237.944 118.564C237.68 118.06 237.224 117.736 236.576 117.592C235.952 117.424 234.968 117.34 233.624 117.34C232.28 117.34 231.284 117.424 230.636 117.592C230.012 117.736 229.568 118.06 229.304 118.564C229.04 119.044 228.908 119.824 228.908 120.904V127.96C228.908 128.752 228.992 129.376 229.16 129.832C229.352 130.264 229.664 130.576 230.096 130.768C230.528 130.984 230.972 131.116 231.428 131.164C231.884 131.212 232.616 131.236 233.624 131.236ZM247.641 115.576H255.273C256.833 115.576 258.081 115.672 259.017 115.864C259.953 116.032 260.637 116.332 261.069 116.764C261.477 117.172 261.741 117.592 261.861 118.024C261.981 118.456 262.041 119.056 262.041 119.824V120.436C262.041 121.372 261.801 122.068 261.321 122.524C260.841 122.98 260.037 123.328 258.909 123.568V123.712C261.693 124.192 263.085 125.404 263.085 127.348V128.392C263.085 129.568 262.845 130.492 262.365 131.164C261.909 131.812 261.141 132.28 260.061 132.568C258.981 132.856 257.469 133 255.525 133H247.641V115.576ZM255.561 122.92C256.521 122.92 257.241 122.848 257.721 122.704C258.201 122.536 258.525 122.284 258.693 121.948C258.861 121.588 258.945 121.048 258.945 120.328V120.112C258.945 119.464 258.849 118.984 258.657 118.672C258.489 118.36 258.153 118.144 257.649 118.024C257.169 117.88 256.437 117.808 255.453 117.808H250.881V122.92H255.561ZM255.705 130.66C256.833 130.66 257.685 130.588 258.261 130.444C258.837 130.3 259.233 130.072 259.449 129.76C259.665 129.424 259.773 128.932 259.773 128.284V127.132C259.773 126.532 259.521 126.028 259.017 125.62C258.489 125.236 257.445 125.044 255.885 125.044H250.881V130.66H255.705ZM276.161 133.36C274.625 133.36 273.473 133.3 272.705 133.18C271.937 133.084 271.169 132.856 270.401 132.496C269.609 132.136 269.033 131.56 268.673 130.768C268.313 129.952 268.133 128.86 268.133 127.492V121.444C268.133 120.364 268.265 119.416 268.529 118.6C268.793 117.784 269.141 117.148 269.573 116.692C269.933 116.284 270.473 115.972 271.193 115.756C271.937 115.516 272.693 115.36 273.461 115.288C274.325 115.24 275.225 115.216 276.161 115.216C277.409 115.216 278.345 115.252 278.969 115.324C279.617 115.372 280.301 115.492 281.021 115.684C281.765 115.9 282.341 116.224 282.749 116.656C283.157 117.088 283.505 117.712 283.793 118.528C284.057 119.368 284.189 120.34 284.189 121.444V127.492C284.189 129.532 283.721 131.02 282.785 131.956C282.401 132.34 281.849 132.64 281.129 132.856C280.409 133.072 279.665 133.216 278.897 133.288C277.985 133.336 277.073 133.36 276.161 133.36ZM276.161 131.236C277.169 131.236 277.901 131.212 278.357 131.164C278.813 131.116 279.257 130.984 279.689 130.768C280.121 130.576 280.421 130.264 280.589 129.832C280.781 129.376 280.877 128.752 280.877 127.96V120.904C280.877 119.824 280.745 119.044 280.481 118.564C280.217 118.06 279.761 117.736 279.113 117.592C278.489 117.424 277.505 117.34 276.161 117.34C274.817 117.34 273.821 117.424 273.173 117.592C272.549 117.736 272.105 118.06 271.841 118.564C271.577 119.044 271.445 119.824 271.445 120.904V127.96C271.445 128.752 271.529 129.376 271.697 129.832C271.889 130.264 272.201 130.576 272.633 130.768C273.065 130.984 273.509 131.116 273.965 131.164C274.421 131.212 275.153 131.236 276.161 131.236ZM289.926 115.576H293.166V123.1C293.526 123.1 293.814 123.028 294.03 122.884C294.27 122.716 294.558 122.464 294.894 122.128L300.942 115.576H304.902L296.982 123.82C297.294 123.892 297.738 124.216 298.314 124.792C298.914 125.368 299.79 126.304 300.942 127.6L305.802 133H301.806L297.054 127.6C296.406 126.856 295.77 126.268 295.146 125.836C294.666 125.524 294.33 125.344 294.138 125.296C293.946 125.224 293.754 125.188 293.562 125.188C293.37 125.188 293.238 125.188 293.166 125.188V133H289.926V115.576ZM317.429 112.876L310.337 117.52V114.568L317.465 109.636H320.561V133H317.429V112.876ZM338.004 121.408H348.012V124H338.004V121.408ZM368.78 133.36C366.764 133.36 364.496 133.132 361.976 132.676V130.084C364.832 130.684 367.22 130.984 369.14 130.984C372.332 130.984 373.928 130.084 373.928 128.284V124.288C373.928 123.304 373.4 122.656 372.344 122.344C371.84 122.224 371.384 122.152 370.976 122.128C370.592 122.08 370.088 122.056 369.464 122.056H364.964V119.824H368.852C369.476 119.824 369.98 119.812 370.364 119.788C370.748 119.74 371.192 119.644 371.696 119.5C372.224 119.38 372.632 119.152 372.92 118.816C373.208 118.48 373.352 118.048 373.352 117.52V113.344C373.352 112.12 371.912 111.508 369.032 111.508C367.112 111.508 364.916 111.7 362.444 112.084V109.6C364.508 109.384 366.692 109.276 368.996 109.276C371.66 109.276 373.592 109.576 374.792 110.176C376.016 110.752 376.628 111.748 376.628 113.164V117.664C376.628 118.408 376.328 119.032 375.728 119.536C375.128 120.016 374.36 120.328 373.424 120.472V120.616C374 120.712 374.468 120.82 374.828 120.94C375.212 121.036 375.62 121.192 376.052 121.408C376.892 121.84 377.312 122.596 377.312 123.676V128.356C377.312 129.172 377.132 129.904 376.772 130.552C376.412 131.2 375.956 131.704 375.404 132.064C374.924 132.4 374.288 132.676 373.496 132.892C372.704 133.084 371.924 133.216 371.156 133.288C370.244 133.336 369.452 133.36 368.78 133.36ZM391.21 133.36C390.154 133.36 389.302 133.324 388.654 133.252C388.006 133.18 387.334 133.036 386.638 132.82C385.894 132.604 385.306 132.292 384.874 131.884C384.442 131.452 384.082 130.852 383.794 130.084C383.506 129.316 383.362 128.416 383.362 127.384V115.576C383.362 114.496 383.53 113.548 383.866 112.732C384.226 111.916 384.682 111.268 385.234 110.788C385.714 110.38 386.362 110.056 387.178 109.816C387.994 109.552 388.81 109.384 389.626 109.312C390.538 109.264 391.366 109.24 392.11 109.24C393.574 109.24 395.542 109.348 398.014 109.564V112.012C395.542 111.7 393.418 111.544 391.642 111.544C390.298 111.544 389.278 111.64 388.582 111.832C387.886 112.024 387.37 112.408 387.034 112.984C386.722 113.536 386.566 114.376 386.566 115.504V119.176H391.858C393.058 119.176 393.958 119.2 394.558 119.248C395.158 119.296 395.794 119.392 396.466 119.536C397.138 119.68 397.63 119.92 397.942 120.256C398.278 120.592 398.566 121.072 398.806 121.696C399.022 122.296 399.13 123.052 399.13 123.964V127.384C399.13 129.976 398.314 131.656 396.682 132.424C395.89 132.784 395.098 133.024 394.306 133.144C393.514 133.288 392.482 133.36 391.21 133.36ZM391.282 131.236C392.554 131.236 393.502 131.152 394.126 130.984C394.774 130.792 395.23 130.444 395.494 129.94C395.782 129.412 395.926 128.62 395.926 127.564V124.072C395.926 123.28 395.806 122.692 395.566 122.308C395.326 121.9 394.882 121.624 394.234 121.48C393.586 121.336 392.59 121.264 391.246 121.264H386.566V127.564C386.566 128.62 386.71 129.412 386.998 129.94C387.286 130.444 387.754 130.792 388.402 130.984C389.05 131.152 390.01 131.236 391.282 131.236ZM405.217 115.576H408.421V117.448H408.457C408.721 115.96 410.701 115.216 414.397 115.216C416.605 115.216 418.273 115.684 419.401 116.62C420.529 117.532 421.093 118.708 421.093 120.148V127.312C421.093 128.344 420.937 129.244 420.625 130.012C420.337 130.78 419.953 131.38 419.473 131.812C419.041 132.22 418.441 132.544 417.673 132.784C416.929 133.024 416.185 133.18 415.441 133.252C414.769 133.324 413.953 133.36 412.993 133.36C411.937 133.36 410.965 133.24 410.077 133C409.213 132.736 408.673 132.364 408.457 131.884V140.488H405.217V115.576ZM413.065 131.164C414.313 131.164 415.261 131.08 415.909 130.912C416.581 130.72 417.061 130.384 417.349 129.904C417.637 129.424 417.781 128.692 417.781 127.708V121.3C417.781 120.22 417.637 119.416 417.349 118.888C417.061 118.36 416.581 118.012 415.909 117.844C415.261 117.652 414.301 117.556 413.029 117.556C411.757 117.556 410.809 117.652 410.185 117.844C409.561 118.012 409.117 118.36 408.853 118.888C408.589 119.392 408.457 120.196 408.457 121.3V127.708C408.457 128.692 408.589 129.424 408.853 129.904C409.141 130.384 409.609 130.72 410.257 130.912C410.905 131.08 411.841 131.164 413.065 131.164ZM430.817 124.036L424.697 115.576H428.261L432.581 121.948L436.937 115.576H440.501L434.381 124.036L440.861 133H437.297L432.581 126.124L427.901 133H424.337L430.817 124.036Z" fill="url(#paint0_linear_0_1)"/>
<rect x="40" y="4" width="117.133" height="30" rx="3" fill="#1E0044"/>
<rect x="40.5" y="4.5" width="116.133" height="29" rx="2.5" stroke="black" stroke-opacity="0.2"/>
<path d="M46.5313 14.8594V14H52.5312V14.8594H50.0156V22H49.0469V14.8594H46.5313ZM55.5469 22.125C54.9688 22.125 54.4701 21.9974 54.0508 21.7422C53.6341 21.4844 53.3125 21.125 53.0859 20.6641C52.862 20.2005 52.75 19.6615 52.75 19.0469C52.75 18.4323 52.862 17.8906 53.0859 17.4219C53.3125 16.9505 53.6276 16.5833 54.0313 16.3203C54.4375 16.0547 54.9115 15.9219 55.4531 15.9219C55.7656 15.9219 56.0742 15.974 56.3789 16.0781C56.6836 16.1823 56.9609 16.3516 57.2109 16.5859C57.4609 16.8177 57.6602 17.125 57.8086 17.5078C57.957 17.8906 58.0312 18.362 58.0312 18.9219V19.3125H53.4063V18.5156H57.0938C57.0938 18.1771 57.026 17.875 56.8906 17.6094C56.7578 17.3437 56.5677 17.1341 56.3203 16.9805C56.0755 16.8268 55.7865 16.75 55.4531 16.75C55.0859 16.75 54.7682 16.8411 54.5 17.0234C54.2344 17.2031 54.0299 17.4375 53.8867 17.7266C53.7435 18.0156 53.6719 18.3255 53.6719 18.6562V19.1875C53.6719 19.6406 53.75 20.0247 53.9062 20.3398C54.0651 20.6523 54.2852 20.8906 54.5664 21.0547C54.8477 21.2161 55.1745 21.2969 55.5469 21.2969C55.7891 21.2969 56.0078 21.263 56.2031 21.1953C56.401 21.125 56.5716 21.0208 56.7148 20.8828C56.8581 20.7422 56.9688 20.5677 57.0469 20.3594L57.9375 20.6094C57.8438 20.9115 57.6862 21.1771 57.4648 21.4062C57.2435 21.6328 56.9701 21.8099 56.6445 21.9375C56.319 22.0625 55.9531 22.125 55.5469 22.125ZM59.96 16L61.3975 18.4531L62.835 16H63.8975L61.96 19L63.8975 22H62.835L61.3975 19.6719L59.96 22H58.8975L60.8037 19L58.8975 16H59.96ZM67.8223 16V16.7812H64.7129V16H67.8223ZM65.6191 14.5625H66.541V20.2812C66.541 20.5417 66.5788 20.737 66.6543 20.8672C66.7324 20.9948 66.8314 21.0807 66.9512 21.125C67.0736 21.1667 67.2025 21.1875 67.3379 21.1875C67.4395 21.1875 67.5228 21.1823 67.5879 21.1719C67.653 21.1589 67.7051 21.1484 67.7441 21.1406L67.9316 21.9687C67.8691 21.9922 67.7819 22.0156 67.6699 22.0391C67.5579 22.0651 67.416 22.0781 67.2441 22.0781C66.9837 22.0781 66.7285 22.0221 66.4785 21.9102C66.2311 21.7982 66.0254 21.6276 65.8613 21.3984C65.6999 21.1693 65.6191 20.8802 65.6191 20.5312V14.5625ZM73.3496 22V22.8594H68.3496V22H73.3496ZM78.4326 17.3437L77.6045 17.5781C77.5524 17.4401 77.4756 17.306 77.374 17.1758C77.2751 17.043 77.1396 16.9336 76.9678 16.8477C76.7959 16.7617 76.5758 16.7187 76.3076 16.7187C75.9404 16.7187 75.6344 16.8034 75.3896 16.9727C75.1475 17.1393 75.0264 17.3516 75.0264 17.6094C75.0264 17.8385 75.1097 18.0195 75.2764 18.1523C75.443 18.2852 75.7035 18.3958 76.0576 18.4844L76.9482 18.7031C77.4847 18.8333 77.8844 19.0326 78.1475 19.3008C78.4105 19.5664 78.542 19.9089 78.542 20.3281C78.542 20.6719 78.443 20.9792 78.2451 21.25C78.0498 21.5208 77.7764 21.7344 77.4248 21.8906C77.0732 22.0469 76.6644 22.125 76.1982 22.125C75.5863 22.125 75.0798 21.9922 74.6787 21.7266C74.2777 21.4609 74.0238 21.0729 73.917 20.5625L74.792 20.3437C74.8753 20.6667 75.0329 20.9089 75.2646 21.0703C75.499 21.2318 75.805 21.3125 76.1826 21.3125C76.6123 21.3125 76.9535 21.2214 77.2061 21.0391C77.4613 20.8542 77.5889 20.6328 77.5889 20.375C77.5889 20.1667 77.516 19.9922 77.3701 19.8516C77.2243 19.7083 77.0003 19.6016 76.6982 19.5312L75.6982 19.2969C75.1488 19.1667 74.7451 18.9648 74.4873 18.6914C74.2321 18.4154 74.1045 18.0703 74.1045 17.6562C74.1045 17.3177 74.1995 17.0182 74.3896 16.7578C74.5824 16.4974 74.8441 16.293 75.1748 16.1445C75.5081 15.9961 75.8857 15.9219 76.3076 15.9219C76.9014 15.9219 77.3675 16.0521 77.7061 16.3125C78.0472 16.5729 78.2894 16.9167 78.4326 17.3437ZM82.5391 16V16.7812H79.4297V16H82.5391ZM80.3359 14.5625H81.2578V20.2812C81.2578 20.5417 81.2956 20.737 81.3711 20.8672C81.4492 20.9948 81.5482 21.0807 81.668 21.125C81.7904 21.1667 81.9193 21.1875 82.0547 21.1875C82.1563 21.1875 82.2396 21.1823 82.3047 21.1719C82.3698 21.1589 82.4219 21.1484 82.4609 21.1406L82.6484 21.9687C82.5859 21.9922 82.4987 22.0156 82.3867 22.0391C82.2747 22.0651 82.1328 22.0781 81.9609 22.0781C81.7005 22.0781 81.4453 22.0221 81.1953 21.9102C80.9479 21.7982 80.7422 21.6276 80.5781 21.3984C80.4167 21.1693 80.3359 20.8802 80.3359 20.5312V14.5625ZM84.5195 24.25C84.3633 24.25 84.224 24.237 84.1016 24.2109C83.9792 24.1875 83.8945 24.1641 83.8477 24.1406L84.082 23.3281C84.306 23.3854 84.5039 23.4063 84.6758 23.3906C84.8477 23.375 85 23.2982 85.1328 23.1602C85.2682 23.0247 85.3919 22.8047 85.5039 22.5L85.6758 22.0313L83.457 16H84.457L86.1133 20.7812H86.1758L87.832 16H88.832L86.2852 22.875C86.1706 23.1849 86.0286 23.4414 85.8594 23.6445C85.6901 23.8503 85.4935 24.0026 85.2695 24.1016C85.0482 24.2005 84.7982 24.25 84.5195 24.25ZM90.9707 14V22H90.0488V14H90.9707ZM95.1748 22.125C94.5967 22.125 94.098 21.9974 93.6787 21.7422C93.262 21.4844 92.9404 21.125 92.7139 20.6641C92.4899 20.2005 92.3779 19.6615 92.3779 19.0469C92.3779 18.4323 92.4899 17.8906 92.7139 17.4219C92.9404 16.9505 93.2555 16.5833 93.6592 16.3203C94.0654 16.0547 94.5394 15.9219 95.0811 15.9219C95.3936 15.9219 95.7021 15.974 96.0068 16.0781C96.3115 16.1823 96.5889 16.3516 96.8389 16.5859C97.0889 16.8177 97.2881 17.125 97.4365 17.5078C97.585 17.8906 97.6592 18.362 97.6592 18.9219V19.3125H93.0342V18.5156H96.7217C96.7217 18.1771 96.654 17.875 96.5186 17.6094C96.3857 17.3437 96.1956 17.1341 95.9482 16.9805C95.7035 16.8268 95.4144 16.75 95.0811 16.75C94.7139 16.75 94.3962 16.8411 94.1279 17.0234C93.8623 17.2031 93.6579 17.4375 93.5146 17.7266C93.3714 18.0156 93.2998 18.3255 93.2998 18.6562V19.1875C93.2998 19.6406 93.3779 20.0247 93.5342 20.3398C93.693 20.6523 93.9131 20.8906 94.1943 21.0547C94.4756 21.2161 94.8024 21.2969 95.1748 21.2969C95.417 21.2969 95.6357 21.263 95.8311 21.1953C96.029 21.125 96.1995 21.0208 96.3428 20.8828C96.486 20.7422 96.5967 20.5677 96.6748 20.3594L97.5654 20.6094C97.4717 20.9115 97.3141 21.1771 97.0928 21.4062C96.8714 21.6328 96.598 21.8099 96.2725 21.9375C95.9469 22.0625 95.5811 22.125 95.1748 22.125ZM103.312 17.3437L102.483 17.5781C102.431 17.4401 102.354 17.306 102.253 17.1758C102.154 17.043 102.019 16.9336 101.847 16.8477C101.675 16.7617 101.455 16.7187 101.187 16.7187C100.819 16.7187 100.513 16.8034 100.269 16.9727C100.026 17.1393 99.9053 17.3516 99.9053 17.6094C99.9053 17.8385 99.9886 18.0195 100.155 18.1523C100.322 18.2852 100.582 18.3958 100.937 18.4844L101.827 18.7031C102.364 18.8333 102.763 19.0326 103.026 19.3008C103.289 19.5664 103.421 19.9089 103.421 20.3281C103.421 20.6719 103.322 20.9792 103.124 21.25C102.929 21.5208 102.655 21.7344 102.304 21.8906C101.952 22.0469 101.543 22.125 101.077 22.125C100.465 22.125 99.9587 21.9922 99.5576 21.7266C99.1566 21.4609 98.9027 21.0729 98.7959 20.5625L99.6709 20.3437C99.7542 20.6667 99.9118 20.9089 100.144 21.0703C100.378 21.2318 100.684 21.3125 101.062 21.3125C101.491 21.3125 101.832 21.2214 102.085 21.0391C102.34 20.8542 102.468 20.6328 102.468 20.375C102.468 20.1667 102.395 19.9922 102.249 19.8516C102.103 19.7083 101.879 19.6016 101.577 19.5312L100.577 19.2969C100.028 19.1667 99.624 18.9648 99.3662 18.6914C99.111 18.4154 98.9834 18.0703 98.9834 17.6562C98.9834 17.3177 99.0785 17.0182 99.2686 16.7578C99.4613 16.4974 99.723 16.293 100.054 16.1445C100.387 15.9961 100.765 15.9219 101.187 15.9219C101.78 15.9219 102.246 16.0521 102.585 16.3125C102.926 16.5729 103.168 16.9167 103.312 17.3437ZM108.949 22V22.8594H103.949V22H108.949ZM112.048 22.125C111.548 22.125 111.106 21.9987 110.724 21.7461C110.341 21.4909 110.041 21.1315 109.825 20.668C109.609 20.2018 109.501 19.651 109.501 19.0156C109.501 18.3854 109.609 17.8385 109.825 17.375C110.041 16.9115 110.342 16.5534 110.728 16.3008C111.113 16.0482 111.558 15.9219 112.063 15.9219C112.454 15.9219 112.763 15.987 112.989 16.1172C113.218 16.2448 113.393 16.3906 113.513 16.5547C113.635 16.7161 113.73 16.849 113.798 16.9531H113.876V14H114.798V22H113.907V21.0781H113.798C113.73 21.1875 113.634 21.3255 113.509 21.4922C113.384 21.6562 113.205 21.8034 112.974 21.9336C112.742 22.0612 112.433 22.125 112.048 22.125ZM112.173 21.2969C112.543 21.2969 112.855 21.2005 113.11 21.0078C113.366 20.8125 113.56 20.543 113.692 20.1992C113.825 19.8529 113.892 19.4531 113.892 19C113.892 18.5521 113.826 18.1602 113.696 17.8242C113.566 17.4857 113.373 17.2227 113.118 17.0352C112.863 16.8451 112.548 16.75 112.173 16.75C111.782 16.75 111.457 16.8503 111.196 17.0508C110.938 17.2487 110.744 17.5182 110.614 17.8594C110.487 18.1979 110.423 18.5781 110.423 19C110.423 19.4271 110.488 19.8151 110.618 20.1641C110.751 20.5104 110.946 20.7865 111.204 20.9922C111.465 21.1953 111.787 21.2969 112.173 21.2969ZM119.13 22.125C118.552 22.125 118.053 21.9974 117.634 21.7422C117.217 21.4844 116.896 21.125 116.669 20.6641C116.445 20.2005 116.333 19.6615 116.333 19.0469C116.333 18.4323 116.445 17.8906 116.669 17.4219C116.896 16.9505 117.211 16.5833 117.614 16.3203C118.021 16.0547 118.494 15.9219 119.036 15.9219C119.349 15.9219 119.657 15.974 119.962 16.0781C120.267 16.1823 120.544 16.3516 120.794 16.5859C121.044 16.8177 121.243 17.125 121.392 17.5078C121.54 17.8906 121.614 18.362 121.614 18.9219V19.3125H116.989V18.5156H120.677C120.677 18.1771 120.609 17.875 120.474 17.6094C120.341 17.3437 120.151 17.1341 119.903 16.9805C119.659 16.8268 119.369 16.75 119.036 16.75C118.669 16.75 118.351 16.8411 118.083 17.0234C117.817 17.2031 117.613 17.4375 117.47 17.7266C117.326 18.0156 117.255 18.3255 117.255 18.6562V19.1875C117.255 19.6406 117.333 20.0247 117.489 20.3398C117.648 20.6523 117.868 20.8906 118.149 21.0547C118.431 21.2161 118.757 21.2969 119.13 21.2969C119.372 21.2969 119.591 21.263 119.786 21.1953C119.984 21.125 120.155 21.0208 120.298 20.8828C120.441 20.7422 120.552 20.5677 120.63 20.3594L121.521 20.6094C121.427 20.9115 121.269 21.1771 121.048 21.4062C120.826 21.6328 120.553 21.8099 120.228 21.9375C119.902 22.0625 119.536 22.125 119.13 22.125ZM127.267 17.3437L126.438 17.5781C126.386 17.4401 126.31 17.306 126.208 17.1758C126.109 17.043 125.974 16.9336 125.802 16.8477C125.63 16.7617 125.41 16.7187 125.142 16.7187C124.774 16.7187 124.468 16.8034 124.224 16.9727C123.981 17.1393 123.86 17.3516 123.86 17.6094C123.86 17.8385 123.944 18.0195 124.11 18.1523C124.277 18.2852 124.537 18.3958 124.892 18.4844L125.782 18.7031C126.319 18.8333 126.718 19.0326 126.981 19.3008C127.244 19.5664 127.376 19.9089 127.376 20.3281C127.376 20.6719 127.277 20.9792 127.079 21.25C126.884 21.5208 126.61 21.7344 126.259 21.8906C125.907 22.0469 125.498 22.125 125.032 22.125C124.42 22.125 123.914 21.9922 123.513 21.7266C123.112 21.4609 122.858 21.0729 122.751 20.5625L123.626 20.3437C123.709 20.6667 123.867 20.9089 124.099 21.0703C124.333 21.2318 124.639 21.3125 125.017 21.3125C125.446 21.3125 125.787 21.2214 126.04 21.0391C126.295 20.8542 126.423 20.6328 126.423 20.375C126.423 20.1667 126.35 19.9922 126.204 19.8516C126.058 19.7083 125.834 19.6016 125.532 19.5312L124.532 19.2969C123.983 19.1667 123.579 18.9648 123.321 18.6914C123.066 18.4154 122.938 18.0703 122.938 17.6562C122.938 17.3177 123.034 17.0182 123.224 16.7578C123.416 16.4974 123.678 16.293 124.009 16.1445C124.342 15.9961 124.72 15.9219 125.142 15.9219C125.735 15.9219 126.201 16.0521 126.54 16.3125C126.881 16.5729 127.123 16.9167 127.267 17.3437ZM129.623 19.8125L129.607 18.6719H129.795L132.42 16H133.561L130.764 18.8281H130.686L129.623 19.8125ZM128.764 22V14H129.686V22H128.764ZM132.576 22L130.232 19.0312L130.889 18.3906L133.748 22H132.576ZM137.356 16V16.7812H134.247V16H137.356ZM135.153 14.5625H136.075V20.2812C136.075 20.5417 136.113 20.737 136.188 20.8672C136.267 20.9948 136.366 21.0807 136.485 21.125C136.608 21.1667 136.737 21.1875 136.872 21.1875C136.974 21.1875 137.057 21.1823 137.122 21.1719C137.187 21.1589 137.239 21.1484 137.278 21.1406L137.466 21.9687C137.403 21.9922 137.316 22.0156 137.204 22.0391C137.092 22.0651 136.95 22.0781 136.778 22.0781C136.518 22.0781 136.263 22.0221 136.013 21.9102C135.765 21.7982 135.56 21.6276 135.396 21.3984C135.234 21.1693 135.153 20.8802 135.153 20.5312V14.5625ZM141.116 22.125C140.575 22.125 140.099 21.9961 139.69 21.7383C139.284 21.4805 138.966 21.1198 138.737 20.6562C138.511 20.1927 138.397 19.651 138.397 19.0312C138.397 18.4062 138.511 17.8607 138.737 17.3945C138.966 16.9284 139.284 16.5664 139.69 16.3086C140.099 16.0508 140.575 15.9219 141.116 15.9219C141.658 15.9219 142.132 16.0508 142.538 16.3086C142.947 16.5664 143.265 16.9284 143.491 17.3945C143.72 17.8607 143.835 18.4062 143.835 19.0312C143.835 19.651 143.72 20.1927 143.491 20.6562C143.265 21.1198 142.947 21.4805 142.538 21.7383C142.132 21.9961 141.658 22.125 141.116 22.125ZM141.116 21.2969C141.528 21.2969 141.866 21.1914 142.132 20.9805C142.397 20.7695 142.594 20.4922 142.722 20.1484C142.849 19.8047 142.913 19.4323 142.913 19.0312C142.913 18.6302 142.849 18.2565 142.722 17.9102C142.594 17.5638 142.397 17.2839 142.132 17.0703C141.866 16.8568 141.528 16.75 141.116 16.75C140.705 16.75 140.366 16.8568 140.101 17.0703C139.835 17.2839 139.638 17.5638 139.511 17.9102C139.383 18.2565 139.319 18.6302 139.319 19.0312C139.319 19.4323 139.383 19.8047 139.511 20.1484C139.638 20.4922 139.835 20.7695 140.101 20.9805C140.366 21.1914 140.705 21.2969 141.116 21.2969ZM145.242 24.25V16H146.133V16.9531H146.242C146.31 16.849 146.404 16.7161 146.523 16.5547C146.646 16.3906 146.82 16.2448 147.047 16.1172C147.276 15.987 147.586 15.9219 147.977 15.9219C148.482 15.9219 148.927 16.0482 149.313 16.3008C149.698 16.5534 149.999 16.9115 150.215 17.375C150.431 17.8385 150.539 18.3854 150.539 19.0156C150.539 19.651 150.431 20.2018 150.215 20.668C149.999 21.1315 149.699 21.4909 149.316 21.7461C148.934 21.9987 148.492 22.125 147.992 22.125C147.607 22.125 147.298 22.0612 147.066 21.9336C146.835 21.8034 146.656 21.6562 146.531 21.4922C146.406 21.3255 146.31 21.1875 146.242 21.0781H146.164V24.25H145.242ZM146.148 19C146.148 19.4531 146.215 19.8529 146.348 20.1992C146.48 20.543 146.674 20.8125 146.93 21.0078C147.185 21.2005 147.497 21.2969 147.867 21.2969C148.253 21.2969 148.574 21.1953 148.832 20.9922C149.092 20.7865 149.288 20.5104 149.418 20.1641C149.551 19.8151 149.617 19.4271 149.617 19C149.617 18.5781 149.552 18.1979 149.422 17.8594C149.294 17.5182 149.1 17.2487 148.84 17.0508C148.582 16.8503 148.258 16.75 147.867 16.75C147.492 16.75 147.177 16.8451 146.922 17.0352C146.667 17.2227 146.474 17.4857 146.344 17.8242C146.214 18.1602 146.148 18.5521 146.148 19Z" fill="white"/>
<defs>
<linearGradient id="paint0_linear_0_1" x1="519.504" y1="104.082" x2="327.604" y2="328.399" gradientUnits="userSpaceOnUse">
<stop stop-color="white"/>
<stop offset="0.523958" stop-color="#D795FF"/>
<stop offset="1" stop-color="#7BC2FE"/>
</linearGradient>
</defs>
</svg>
