<svg width="533" height="224" viewBox="0 0 533 224" fill="none" xmlns="http://www.w3.org/2000/svg">
<rect width="453" height="144" transform="translate(40 40)" fill="#1E0044"/>
<path d="M66.408 79.24C64.264 79.24 62.368 79.064 60.72 78.712V75.88C61.84 76.136 62.76 76.32 63.48 76.432C64.2 76.528 64.984 76.576 65.832 76.576C67.048 76.576 67.888 76.456 68.352 76.216C68.816 75.96 69.048 75.56 69.048 75.016V73.504C69.048 73.008 68.8 72.688 68.304 72.544C67.824 72.4 67.056 72.328 66 72.328H62.904V69.664H66C66.704 69.664 67.232 69.616 67.584 69.52C67.936 69.424 68.176 69.288 68.304 69.112C68.432 68.92 68.496 68.648 68.496 68.296V67.072C68.496 66.576 68.304 66.248 67.92 66.088C67.536 65.928 66.84 65.848 65.832 65.848C64.504 65.848 62.904 66.08 61.032 66.544V63.736C62.984 63.368 64.816 63.184 66.528 63.184C68.544 63.184 70 63.416 70.896 63.88C71.792 64.328 72.24 65.112 72.24 66.232V68.728C72.24 69.192 72.08 69.6 71.76 69.952C71.44 70.288 71.056 70.512 70.608 70.624V70.696C72.064 71.112 72.792 71.888 72.792 73.024V75.544C72.792 76.776 72.248 77.704 71.16 78.328C70.088 78.936 68.504 79.24 66.408 79.24ZM78.9915 79.24C77.9035 79.24 77.0875 79.144 76.5435 78.952C76.0155 78.744 75.6395 78.384 75.4155 77.872C75.2075 77.344 75.1035 76.56 75.1035 75.52C75.1035 74.592 75.2155 73.864 75.4395 73.336C75.6795 72.808 76.0555 72.432 76.5675 72.208C77.0955 71.968 77.8155 71.848 78.7275 71.848H82.6635V71.056C82.6635 70.56 82.5915 70.192 82.4475 69.952C82.3195 69.712 82.0715 69.544 81.7035 69.448C81.3515 69.352 80.8155 69.304 80.0955 69.304C79.1035 69.304 77.7435 69.4 76.0155 69.592V67.384C77.2795 67.224 78.7595 67.144 80.4555 67.144C81.9435 67.144 83.0875 67.256 83.8875 67.48C84.7035 67.704 85.2875 68.088 85.6395 68.632C85.9915 69.176 86.1675 69.968 86.1675 71.008V79H82.7355V77.944C82.4635 78.408 82.0955 78.736 81.6315 78.928C81.1675 79.136 80.2875 79.24 78.9915 79.24ZM80.3595 77.056C81.0635 77.056 81.5675 77.032 81.8715 76.984C82.0955 76.952 82.2475 76.904 82.3275 76.84C82.4235 76.776 82.5035 76.672 82.5675 76.528C82.6315 76.416 82.6635 76.248 82.6635 76.024V73.768H80.2635C79.7195 73.768 79.3355 73.808 79.1115 73.888C78.8875 73.952 78.7355 74.096 78.6555 74.32C78.5755 74.528 78.5355 74.904 78.5355 75.448C78.5355 75.976 78.5755 76.344 78.6555 76.552C78.7355 76.76 78.8875 76.896 79.1115 76.96C79.3515 77.024 79.7675 77.056 80.3595 77.056ZM89.7304 67.384H98.2024V69.688H93.2344V79H89.7304V67.384ZM106.255 79.24C105.535 79.24 104.943 79.216 104.479 79.168C104.015 79.12 103.519 79.024 102.991 78.88C102.415 78.72 101.951 78.496 101.599 78.208C101.247 77.904 100.951 77.48 100.711 76.936C100.471 76.408 100.351 75.768 100.351 75.016V71.584C100.351 70.816 100.471 70.144 100.711 69.568C100.951 68.992 101.263 68.544 101.647 68.224C101.983 67.952 102.423 67.728 102.967 67.552C103.527 67.36 104.071 67.24 104.599 67.192C105.207 67.16 105.759 67.144 106.255 67.144C106.991 67.144 107.575 67.168 108.007 67.216C108.455 67.248 108.943 67.344 109.471 67.504C110.047 67.68 110.511 67.92 110.863 68.224C111.231 68.528 111.543 68.96 111.799 69.52C112.039 70.096 112.159 70.784 112.159 71.584V75.016C112.159 75.736 112.039 76.368 111.799 76.912C111.575 77.456 111.279 77.88 110.911 78.184C110.591 78.456 110.151 78.68 109.591 78.856C109.047 79.016 108.511 79.12 107.983 79.168C107.503 79.216 106.927 79.24 106.255 79.24ZM106.255 77.056C106.911 77.056 107.407 77.008 107.743 76.912C108.079 76.8 108.311 76.632 108.439 76.408C108.583 76.184 108.655 75.856 108.655 75.424V71.032C108.655 70.392 108.487 69.944 108.151 69.688C107.815 69.432 107.183 69.304 106.255 69.304C105.327 69.304 104.695 69.432 104.359 69.688C104.023 69.944 103.855 70.392 103.855 71.032V75.424C103.855 75.856 103.919 76.184 104.047 76.408C104.191 76.632 104.431 76.8 104.767 76.912C105.103 77.008 105.599 77.056 106.255 77.056ZM115.898 79.192C115.546 79.192 115.13 79.144 114.65 79.048V76.456C114.842 76.488 115.042 76.504 115.25 76.504C115.842 76.504 116.322 76.32 116.69 75.952C117.058 75.584 117.338 74.864 117.53 73.792C117.738 72.72 117.842 71.168 117.842 69.136V67.384H126.938V79H123.434V69.616H120.77V69.904C120.77 72.384 120.554 74.304 120.122 75.664C119.69 77.024 119.122 77.952 118.418 78.448C117.714 78.944 116.874 79.192 115.898 79.192ZM136.067 79.24C135.347 79.24 134.755 79.216 134.291 79.168C133.827 79.12 133.331 79.024 132.803 78.88C132.227 78.72 131.763 78.496 131.411 78.208C131.059 77.904 130.763 77.48 130.523 76.936C130.283 76.408 130.163 75.768 130.163 75.016V71.584C130.163 70.816 130.283 70.144 130.523 69.568C130.763 68.992 131.075 68.544 131.459 68.224C131.795 67.952 132.235 67.728 132.779 67.552C133.339 67.36 133.883 67.24 134.411 67.192C135.019 67.16 135.571 67.144 136.067 67.144C136.803 67.144 137.387 67.168 137.819 67.216C138.267 67.248 138.755 67.344 139.283 67.504C139.859 67.68 140.323 67.92 140.675 68.224C141.043 68.528 141.355 68.96 141.611 69.52C141.851 70.096 141.971 70.784 141.971 71.584V75.016C141.971 75.736 141.851 76.368 141.611 76.912C141.387 77.456 141.091 77.88 140.723 78.184C140.403 78.456 139.963 78.68 139.403 78.856C138.859 79.016 138.323 79.12 137.795 79.168C137.315 79.216 136.739 79.24 136.067 79.24ZM136.067 77.056C136.723 77.056 137.219 77.008 137.555 76.912C137.891 76.8 138.123 76.632 138.251 76.408C138.395 76.184 138.467 75.856 138.467 75.424V71.032C138.467 70.392 138.299 69.944 137.963 69.688C137.627 69.432 136.995 69.304 136.067 69.304C135.139 69.304 134.507 69.432 134.171 69.688C133.835 69.944 133.667 70.392 133.667 71.032V75.424C133.667 75.856 133.731 76.184 133.859 76.408C134.003 76.632 134.243 76.8 134.579 76.912C134.915 77.008 135.411 77.056 136.067 77.056ZM145.182 67.384H151.614C152.878 67.384 153.83 67.488 154.47 67.696C155.11 67.904 155.526 68.208 155.718 68.608C155.926 68.992 156.03 69.528 156.03 70.216V70.624C156.03 71.232 155.854 71.688 155.502 71.992C155.166 72.296 154.622 72.528 153.87 72.688V72.784C154.75 72.928 155.43 73.208 155.91 73.624C156.39 74.04 156.63 74.576 156.63 75.232V75.928C156.63 76.984 156.238 77.76 155.454 78.256C154.67 78.752 153.382 79 151.59 79H145.182V67.384ZM150.39 71.968C151.014 71.968 151.478 71.928 151.782 71.848C152.086 71.768 152.294 71.648 152.406 71.488C152.518 71.312 152.574 71.056 152.574 70.72V70.432C152.574 70.128 152.43 69.896 152.142 69.736C151.87 69.576 151.262 69.496 150.318 69.496H148.638V71.968H150.39ZM150.462 76.888C151.438 76.888 152.126 76.784 152.526 76.576C152.926 76.368 153.126 76.04 153.126 75.592V75.16C153.126 74.856 153.046 74.624 152.886 74.464C152.742 74.304 152.494 74.192 152.142 74.128C151.79 74.064 151.27 74.032 150.582 74.032H148.638V76.888H150.462ZM165.175 79.24C164.455 79.24 163.863 79.216 163.399 79.168C162.935 79.12 162.439 79.024 161.911 78.88C161.335 78.72 160.871 78.496 160.519 78.208C160.167 77.904 159.871 77.48 159.631 76.936C159.391 76.408 159.271 75.768 159.271 75.016V71.584C159.271 70.816 159.391 70.144 159.631 69.568C159.871 68.992 160.183 68.544 160.567 68.224C160.903 67.952 161.343 67.728 161.887 67.552C162.447 67.36 162.991 67.24 163.519 67.192C164.127 67.16 164.679 67.144 165.175 67.144C165.911 67.144 166.495 67.168 166.927 67.216C167.375 67.248 167.863 67.344 168.391 67.504C168.967 67.68 169.431 67.92 169.783 68.224C170.151 68.528 170.463 68.96 170.719 69.52C170.959 70.096 171.079 70.784 171.079 71.584V75.016C171.079 75.736 170.959 76.368 170.719 76.912C170.495 77.456 170.199 77.88 169.831 78.184C169.511 78.456 169.071 78.68 168.511 78.856C167.967 79.016 167.431 79.12 166.903 79.168C166.423 79.216 165.847 79.24 165.175 79.24ZM165.175 77.056C165.831 77.056 166.327 77.008 166.663 76.912C166.999 76.8 167.231 76.632 167.359 76.408C167.503 76.184 167.575 75.856 167.575 75.424V71.032C167.575 70.392 167.407 69.944 167.071 69.688C166.735 69.432 166.103 69.304 165.175 69.304C164.247 69.304 163.615 69.432 163.279 69.688C162.943 69.944 162.775 70.392 162.775 71.032V75.424C162.775 75.856 162.839 76.184 162.967 76.408C163.111 76.632 163.351 76.8 163.687 76.912C164.023 77.008 164.519 77.056 165.175 77.056ZM174.29 67.384H177.794V72.088C178.05 72.088 178.258 72.056 178.418 71.992C178.578 71.912 178.738 71.776 178.898 71.584L182.258 67.384H185.906L181.25 72.76C181.906 73.064 182.546 73.664 183.17 74.56L186.266 79H182.234L179.666 75.208C179.378 74.792 179.106 74.528 178.85 74.416C178.594 74.304 178.242 74.248 177.794 74.248V79H174.29V67.384ZM193.046 67.096L188.797 69.448V66.496L193.718 63.424H196.55V79H193.046V67.096ZM208.131 70.792H215.523V73.48H208.131V70.792ZM224.359 75.448C224.359 74.584 224.599 73.832 225.079 73.192C225.559 72.552 226.183 72.064 226.951 71.728C227.559 71.456 228.271 71.184 229.087 70.912C229.903 70.64 230.535 70.352 230.983 70.048C231.431 69.744 231.655 69.384 231.655 68.968V66.976C231.655 66.48 231.455 66.152 231.055 65.992C230.623 65.816 229.951 65.728 229.039 65.728C227.935 65.728 226.479 65.928 224.671 66.328V63.688C226.271 63.352 227.943 63.184 229.687 63.184C231.575 63.184 232.975 63.472 233.887 64.048C234.815 64.624 235.279 65.584 235.279 66.928V69.088C235.279 69.904 235.031 70.616 234.535 71.224C234.055 71.816 233.431 72.264 232.663 72.568C231.943 72.872 231.207 73.144 230.455 73.384C229.639 73.672 228.991 73.992 228.511 74.344C228.047 74.696 227.815 75.112 227.815 75.592V76.384H235.303V79H224.359V75.448ZM245.192 75.856H237.992V73.096L244.4 63.424H248.36V73.336H250.04V75.856H248.36V79H245.192V75.856ZM245.192 73.336V66.736L240.992 73.336H245.192ZM253.306 67.384H256.618V68.536C256.826 68.024 257.234 67.664 257.842 67.456C258.45 67.248 259.354 67.144 260.554 67.144C261.562 67.144 262.37 67.224 262.978 67.384C263.602 67.544 264.074 67.8 264.394 68.152C264.698 68.504 264.906 68.896 265.018 69.328C265.13 69.744 265.186 70.32 265.186 71.056V74.872C265.186 76.024 265.018 76.912 264.682 77.536C264.346 78.16 263.826 78.6 263.122 78.856C262.434 79.112 261.49 79.24 260.29 79.24C259.138 79.24 258.306 79.144 257.794 78.952C257.282 78.76 256.954 78.384 256.81 77.824V83.992H253.306V67.384ZM259.21 77.056C259.898 77.056 260.418 77.008 260.77 76.912C261.122 76.816 261.362 76.648 261.49 76.408C261.618 76.168 261.682 75.808 261.682 75.328V71.032C261.682 70.504 261.626 70.128 261.514 69.904C261.402 69.664 261.178 69.504 260.842 69.424C260.506 69.344 259.954 69.304 259.186 69.304C258.53 69.304 258.026 69.36 257.674 69.472C257.338 69.584 257.106 69.76 256.978 70C256.866 70.24 256.81 70.584 256.81 71.032V75.328C256.81 75.808 256.866 76.168 256.978 76.408C257.106 76.648 257.338 76.816 257.674 76.912C258.01 77.008 258.522 77.056 259.21 77.056ZM271.675 73.048L267.355 67.384H271.411L273.691 70.72L275.995 67.384H280.051L275.707 73.048L280.291 79H276.235L273.691 75.352L271.171 79H267.115L271.675 73.048ZM291.831 82.048C289.735 79.104 288.687 75.88 288.687 72.376C288.687 70.568 288.943 68.896 289.455 67.36C289.967 65.808 290.759 64.256 291.831 62.704H295.095C293.111 65.984 292.119 69.208 292.119 72.376C292.119 75.64 293.119 78.864 295.119 82.048H291.831ZM303.055 79.24C301.679 79.24 300.583 79.144 299.767 78.952C298.967 78.76 298.335 78.328 297.871 77.656C297.423 76.968 297.199 75.936 297.199 74.56V69.688C297.199 68.264 297.423 67.096 297.871 66.184C298.335 65.272 298.951 64.56 299.719 64.048C300.503 63.536 301.471 63.112 302.623 62.776L303.823 62.464C304.479 62.304 305.199 62.12 305.983 61.912C306.767 61.688 307.439 61.464 307.999 61.24V64.216C307.087 64.664 305.535 65.128 303.343 65.608C302.399 65.816 301.647 66.064 301.087 66.352C300.543 66.624 300.135 67 299.863 67.48C299.591 67.96 299.455 68.592 299.455 69.376V70.672H299.479C299.703 69.728 300.167 69.04 300.871 68.608C301.575 68.176 302.679 67.96 304.183 67.96C305.495 67.96 306.487 68.136 307.159 68.488C307.847 68.84 308.311 69.368 308.551 70.072C308.791 70.776 308.911 71.744 308.911 72.976V74.56C308.911 75.696 308.751 76.6 308.431 77.272C308.111 77.928 307.527 78.424 306.679 78.76C305.831 79.08 304.623 79.24 303.055 79.24ZM303.103 77.056C303.807 77.056 304.319 76.992 304.639 76.864C304.959 76.736 305.167 76.544 305.263 76.288C305.359 76.032 305.407 75.648 305.407 75.136V72.16C305.407 71.568 305.359 71.144 305.263 70.888C305.167 70.616 304.967 70.424 304.663 70.312C304.359 70.2 303.863 70.144 303.175 70.144C302.455 70.144 301.919 70.216 301.567 70.36C301.231 70.488 300.999 70.704 300.871 71.008C300.759 71.296 300.703 71.72 300.703 72.28V75.136C300.703 75.632 300.759 76.016 300.871 76.288C300.999 76.544 301.231 76.736 301.567 76.864C301.919 76.992 302.431 77.056 303.103 77.056ZM317.952 79.24C313.84 79.24 311.784 77.984 311.784 75.472V71.296C311.784 69.84 312.248 68.784 313.176 68.128C314.12 67.472 315.568 67.144 317.52 67.144C319.36 67.144 320.704 67.464 321.552 68.104C322.416 68.728 322.848 69.792 322.848 71.296V74.128H315.312V75.184C315.312 75.856 315.552 76.336 316.032 76.624C316.512 76.912 317.376 77.056 318.624 77.056C319.776 77.056 321.072 76.888 322.512 76.552V78.784C321.088 79.088 319.568 79.24 317.952 79.24ZM319.512 72.136V70.456C319.512 70.072 319.352 69.784 319.032 69.592C318.728 69.4 318.208 69.304 317.472 69.304C316.624 69.304 316.056 69.4 315.768 69.592C315.464 69.8 315.312 70.088 315.312 70.456V72.136H319.512ZM329.439 79.24C328.015 79.24 326.583 79.104 325.143 78.832V76.528C326.087 76.736 326.855 76.88 327.447 76.96C328.039 77.024 328.623 77.056 329.199 77.056C329.951 77.056 330.519 77.024 330.903 76.96C331.287 76.896 331.559 76.776 331.719 76.6C331.879 76.408 331.959 76.136 331.959 75.784V75.304C331.959 74.84 331.775 74.528 331.407 74.368C331.055 74.192 330.415 74.104 329.487 74.104H327.135V71.92H329.487C330.223 71.92 330.711 71.824 330.951 71.632C331.207 71.44 331.335 71.128 331.335 70.696V70.48C331.335 70.16 331.279 69.92 331.167 69.76C331.071 69.6 330.871 69.488 330.567 69.424C330.279 69.344 329.823 69.304 329.199 69.304C328.607 69.304 328.047 69.352 327.519 69.448C327.007 69.528 326.319 69.672 325.455 69.88V67.576C327.023 67.288 328.527 67.144 329.967 67.144C331.311 67.144 332.327 67.224 333.015 67.384C333.703 67.544 334.175 67.816 334.431 68.2C334.703 68.568 334.839 69.112 334.839 69.832V70.84C334.839 71.32 334.703 71.72 334.431 72.04C334.159 72.36 333.799 72.576 333.351 72.688V72.808C334.023 72.952 334.543 73.224 334.911 73.624C335.279 74.008 335.463 74.456 335.463 74.968V75.952C335.463 76.8 335.247 77.464 334.815 77.944C334.399 78.424 333.751 78.76 332.871 78.952C332.007 79.144 330.863 79.24 329.439 79.24ZM351.53 79.24C350.826 79.24 350.194 79.208 349.634 79.144C349.09 79.08 348.49 78.96 347.834 78.784C347.098 78.592 346.49 78.344 346.01 78.04C345.53 77.72 345.13 77.28 344.81 76.72C344.474 76.16 344.306 75.496 344.306 74.728V67.888C344.306 64.752 346.714 63.184 351.53 63.184C352.762 63.184 354.41 63.36 356.474 63.712V66.52C354.618 66.072 352.986 65.848 351.578 65.848C350.986 65.848 350.522 65.864 350.186 65.896C349.866 65.928 349.53 66.008 349.178 66.136C348.426 66.392 348.05 66.96 348.05 67.84V74.464C348.05 75.872 349.338 76.576 351.914 76.576C353.018 76.576 354.57 76.344 356.57 75.88V78.712C354.858 79.064 353.178 79.24 351.53 79.24ZM362.586 79.24C361.498 79.24 360.682 79.144 360.138 78.952C359.61 78.744 359.234 78.384 359.01 77.872C358.802 77.344 358.698 76.56 358.698 75.52C358.698 74.592 358.81 73.864 359.034 73.336C359.274 72.808 359.65 72.432 360.162 72.208C360.69 71.968 361.41 71.848 362.322 71.848H366.258V71.056C366.258 70.56 366.186 70.192 366.042 69.952C365.914 69.712 365.666 69.544 365.298 69.448C364.946 69.352 364.41 69.304 363.69 69.304C362.698 69.304 361.338 69.4 359.61 69.592V67.384C360.874 67.224 362.354 67.144 364.05 67.144C365.538 67.144 366.682 67.256 367.482 67.48C368.298 67.704 368.882 68.088 369.234 68.632C369.586 69.176 369.762 69.968 369.762 71.008V79H366.33V77.944C366.058 78.408 365.69 78.736 365.226 78.928C364.762 79.136 363.882 79.24 362.586 79.24ZM363.954 77.056C364.658 77.056 365.162 77.032 365.466 76.984C365.69 76.952 365.842 76.904 365.922 76.84C366.018 76.776 366.098 76.672 366.162 76.528C366.226 76.416 366.258 76.248 366.258 76.024V73.768H363.858C363.314 73.768 362.93 73.808 362.706 73.888C362.482 73.952 362.33 74.096 362.25 74.32C362.17 74.528 362.13 74.904 362.13 75.448C362.13 75.976 362.17 76.344 362.25 76.552C362.33 76.76 362.482 76.896 362.706 76.96C362.946 77.024 363.362 77.056 363.954 77.056ZM373.325 67.384H376.637V68.536C376.845 68.024 377.253 67.664 377.861 67.456C378.469 67.248 379.373 67.144 380.573 67.144C381.581 67.144 382.389 67.224 382.997 67.384C383.621 67.544 384.093 67.8 384.413 68.152C384.717 68.504 384.925 68.896 385.037 69.328C385.149 69.744 385.205 70.32 385.205 71.056V74.872C385.205 76.024 385.037 76.912 384.701 77.536C384.365 78.16 383.845 78.6 383.141 78.856C382.453 79.112 381.509 79.24 380.309 79.24C379.157 79.24 378.325 79.144 377.813 78.952C377.301 78.76 376.973 78.384 376.829 77.824V83.992H373.325V67.384ZM379.229 77.056C379.917 77.056 380.437 77.008 380.789 76.912C381.141 76.816 381.381 76.648 381.509 76.408C381.637 76.168 381.701 75.808 381.701 75.328V71.032C381.701 70.504 381.645 70.128 381.533 69.904C381.421 69.664 381.197 69.504 380.861 69.424C380.525 69.344 379.973 69.304 379.205 69.304C378.549 69.304 378.045 69.36 377.693 69.472C377.357 69.584 377.125 69.76 376.997 70C376.885 70.24 376.829 70.584 376.829 71.032V75.328C376.829 75.808 376.885 76.168 376.997 76.408C377.125 76.648 377.357 76.816 377.693 76.912C378.029 77.008 378.541 77.056 379.229 77.056ZM392.774 79.24C391.526 79.24 389.998 79.12 388.19 78.88V76.552C390.414 76.888 391.958 77.056 392.822 77.056C393.558 77.056 394.102 76.984 394.454 76.84C394.806 76.696 394.982 76.432 394.982 76.048V75.328C394.982 74.928 394.87 74.648 394.646 74.488C394.422 74.312 393.982 74.224 393.326 74.224H391.814C390.582 74.224 389.63 73.984 388.958 73.504C388.286 73.008 387.95 72.288 387.95 71.344V69.928C387.95 68.92 388.43 68.208 389.39 67.792C390.35 67.36 391.798 67.144 393.734 67.144C394.502 67.144 395.878 67.216 397.862 67.36V69.592C395.366 69.4 393.958 69.304 393.638 69.304C392.694 69.304 392.078 69.368 391.79 69.496C391.534 69.64 391.406 69.904 391.406 70.288V70.912C391.406 71.12 391.51 71.304 391.718 71.464C391.926 71.608 392.23 71.68 392.63 71.68H394.166C397.014 71.68 398.438 72.608 398.438 74.464V75.928C398.438 76.488 398.334 76.976 398.126 77.392C397.918 77.808 397.646 78.136 397.31 78.376C396.99 78.6 396.574 78.776 396.062 78.904C395.566 79.032 395.046 79.12 394.502 79.168C394.006 79.216 393.43 79.24 392.774 79.24ZM399.983 82.048C401.983 78.864 402.983 75.64 402.983 72.376C402.983 69.208 401.991 65.984 400.007 62.704H403.271C404.343 64.256 405.135 65.808 405.647 67.36C406.159 68.896 406.415 70.568 406.415 72.376C406.415 75.88 405.367 79.104 403.271 82.048H399.983Z" fill="white"/>
<path d="M66.3443 119.2C64.5576 119.2 62.9776 119.053 61.6043 118.76V116.4C62.5376 116.613 63.3043 116.767 63.9043 116.86C64.5043 116.94 65.1576 116.98 65.8643 116.98C66.8776 116.98 67.5776 116.88 67.9643 116.68C68.351 116.467 68.5443 116.133 68.5443 115.68V114.42C68.5443 114.007 68.3376 113.74 67.9243 113.62C67.5243 113.5 66.8843 113.44 66.0043 113.44H63.4243V111.22H66.0043C66.591 111.22 67.031 111.18 67.3243 111.1C67.6176 111.02 67.8176 110.907 67.9243 110.76C68.031 110.6 68.0843 110.373 68.0843 110.08V109.06C68.0843 108.647 67.9243 108.373 67.6043 108.24C67.2843 108.107 66.7043 108.04 65.8643 108.04C64.7576 108.04 63.4243 108.233 61.8643 108.62V106.28C63.491 105.973 65.0176 105.82 66.4443 105.82C68.1243 105.82 69.3376 106.013 70.0843 106.4C70.831 106.773 71.2043 107.427 71.2043 108.36V110.44C71.2043 110.827 71.071 111.167 70.8043 111.46C70.5376 111.74 70.2176 111.927 69.8443 112.02V112.08C71.0576 112.427 71.6643 113.073 71.6643 114.02V116.12C71.6643 117.147 71.211 117.92 70.3043 118.44C69.411 118.947 68.091 119.2 66.3443 119.2ZM76.8306 119.2C75.9239 119.2 75.2439 119.12 74.7906 118.96C74.3506 118.787 74.0372 118.487 73.8506 118.06C73.6772 117.62 73.5906 116.967 73.5906 116.1C73.5906 115.327 73.6839 114.72 73.8706 114.28C74.0706 113.84 74.3839 113.527 74.8106 113.34C75.2506 113.14 75.8506 113.04 76.6106 113.04H79.8906V112.38C79.8906 111.967 79.8306 111.66 79.7106 111.46C79.6039 111.26 79.3972 111.12 79.0906 111.04C78.7972 110.96 78.3506 110.92 77.7506 110.92C76.9239 110.92 75.7906 111 74.3506 111.16V109.32C75.4039 109.187 76.6372 109.12 78.0506 109.12C79.2906 109.12 80.2439 109.213 80.9106 109.4C81.5906 109.587 82.0772 109.907 82.3706 110.36C82.6639 110.813 82.8106 111.473 82.8106 112.34V119H79.9506V118.12C79.7239 118.507 79.4172 118.78 79.0306 118.94C78.6439 119.113 77.9106 119.2 76.8306 119.2ZM77.9706 117.38C78.5572 117.38 78.9772 117.36 79.2306 117.32C79.4172 117.293 79.5439 117.253 79.6106 117.2C79.6906 117.147 79.7572 117.06 79.8106 116.94C79.8639 116.847 79.8906 116.707 79.8906 116.52V114.64H77.8906C77.4372 114.64 77.1172 114.673 76.9306 114.74C76.7439 114.793 76.6172 114.913 76.5506 115.1C76.4839 115.273 76.4506 115.587 76.4506 116.04C76.4506 116.48 76.4839 116.787 76.5506 116.96C76.6172 117.133 76.7439 117.247 76.9306 117.3C77.1306 117.353 77.4772 117.38 77.9706 117.38ZM85.7796 109.32H92.8396V111.24H88.6996V119H85.7796V109.32ZM99.5501 119.2C98.9501 119.2 98.4568 119.18 98.0701 119.14C97.6834 119.1 97.2701 119.02 96.8301 118.9C96.3501 118.767 95.9634 118.58 95.6701 118.34C95.3768 118.087 95.1301 117.733 94.9301 117.28C94.7301 116.84 94.6301 116.307 94.6301 115.68V112.82C94.6301 112.18 94.7301 111.62 94.9301 111.14C95.1301 110.66 95.3901 110.287 95.7101 110.02C95.9901 109.793 96.3568 109.607 96.8101 109.46C97.2768 109.3 97.7301 109.2 98.1701 109.16C98.6768 109.133 99.1368 109.12 99.5501 109.12C100.163 109.12 100.65 109.14 101.01 109.18C101.383 109.207 101.79 109.287 102.23 109.42C102.71 109.567 103.097 109.767 103.39 110.02C103.697 110.273 103.957 110.633 104.17 111.1C104.37 111.58 104.47 112.153 104.47 112.82V115.68C104.47 116.28 104.37 116.807 104.17 117.26C103.983 117.713 103.737 118.067 103.43 118.32C103.163 118.547 102.797 118.733 102.33 118.88C101.877 119.013 101.43 119.1 100.99 119.14C100.59 119.18 100.11 119.2 99.5501 119.2ZM99.5501 117.38C100.097 117.38 100.51 117.34 100.79 117.26C101.07 117.167 101.263 117.027 101.37 116.84C101.49 116.653 101.55 116.38 101.55 116.02V112.36C101.55 111.827 101.41 111.453 101.13 111.24C100.85 111.027 100.323 110.92 99.5501 110.92C98.7768 110.92 98.2501 111.027 97.9701 111.24C97.6901 111.453 97.5501 111.827 97.5501 112.36V116.02C97.5501 116.38 97.6034 116.653 97.7101 116.84C97.8301 117.027 98.0301 117.167 98.3101 117.26C98.5901 117.34 99.0034 117.38 99.5501 117.38ZM107.586 119.16C107.293 119.16 106.946 119.12 106.546 119.04V116.88C106.706 116.907 106.873 116.92 107.046 116.92C107.539 116.92 107.939 116.767 108.246 116.46C108.553 116.153 108.786 115.553 108.946 114.66C109.119 113.767 109.206 112.473 109.206 110.78V109.32H116.786V119H113.866V111.18H111.646V111.42C111.646 113.487 111.466 115.087 111.106 116.22C110.746 117.353 110.273 118.127 109.686 118.54C109.099 118.953 108.399 119.16 107.586 119.16ZM124.393 119.2C123.793 119.2 123.3 119.18 122.913 119.14C122.526 119.1 122.113 119.02 121.673 118.9C121.193 118.767 120.806 118.58 120.513 118.34C120.22 118.087 119.973 117.733 119.773 117.28C119.573 116.84 119.473 116.307 119.473 115.68V112.82C119.473 112.18 119.573 111.62 119.773 111.14C119.973 110.66 120.233 110.287 120.553 110.02C120.833 109.793 121.2 109.607 121.653 109.46C122.12 109.3 122.573 109.2 123.013 109.16C123.52 109.133 123.98 109.12 124.393 109.12C125.006 109.12 125.493 109.14 125.853 109.18C126.226 109.207 126.633 109.287 127.073 109.42C127.553 109.567 127.94 109.767 128.233 110.02C128.54 110.273 128.8 110.633 129.013 111.1C129.213 111.58 129.313 112.153 129.313 112.82V115.68C129.313 116.28 129.213 116.807 129.013 117.26C128.826 117.713 128.58 118.067 128.273 118.32C128.006 118.547 127.64 118.733 127.173 118.88C126.72 119.013 126.273 119.1 125.833 119.14C125.433 119.18 124.953 119.2 124.393 119.2ZM124.393 117.38C124.94 117.38 125.353 117.34 125.633 117.26C125.913 117.167 126.106 117.027 126.213 116.84C126.333 116.653 126.393 116.38 126.393 116.02V112.36C126.393 111.827 126.253 111.453 125.973 111.24C125.693 111.027 125.166 110.92 124.393 110.92C123.62 110.92 123.093 111.027 122.813 111.24C122.533 111.453 122.393 111.827 122.393 112.36V116.02C122.393 116.38 122.446 116.653 122.553 116.84C122.673 117.027 122.873 117.167 123.153 117.26C123.433 117.34 123.846 117.38 124.393 117.38ZM131.989 109.32H137.349C138.402 109.32 139.196 109.407 139.729 109.58C140.262 109.753 140.609 110.007 140.769 110.34C140.942 110.66 141.029 111.107 141.029 111.68V112.02C141.029 112.527 140.882 112.907 140.589 113.16C140.309 113.413 139.856 113.607 139.229 113.74V113.82C139.962 113.94 140.529 114.173 140.929 114.52C141.329 114.867 141.529 115.313 141.529 115.86V116.44C141.529 117.32 141.202 117.967 140.549 118.38C139.896 118.793 138.822 119 137.329 119H131.989V109.32ZM136.329 113.14C136.849 113.14 137.236 113.107 137.489 113.04C137.742 112.973 137.916 112.873 138.009 112.74C138.102 112.593 138.149 112.38 138.149 112.1V111.86C138.149 111.607 138.029 111.413 137.789 111.28C137.562 111.147 137.056 111.08 136.269 111.08H134.869V113.14H136.329ZM136.389 117.24C137.202 117.24 137.776 117.153 138.109 116.98C138.442 116.807 138.609 116.533 138.609 116.16V115.8C138.609 115.547 138.542 115.353 138.409 115.22C138.289 115.087 138.082 114.993 137.789 114.94C137.496 114.887 137.062 114.86 136.489 114.86H134.869V117.24H136.389ZM148.65 119.2C148.05 119.2 147.557 119.18 147.17 119.14C146.783 119.1 146.37 119.02 145.93 118.9C145.45 118.767 145.063 118.58 144.77 118.34C144.477 118.087 144.23 117.733 144.03 117.28C143.83 116.84 143.73 116.307 143.73 115.68V112.82C143.73 112.18 143.83 111.62 144.03 111.14C144.23 110.66 144.49 110.287 144.81 110.02C145.09 109.793 145.457 109.607 145.91 109.46C146.377 109.3 146.83 109.2 147.27 109.16C147.777 109.133 148.237 109.12 148.65 109.12C149.263 109.12 149.75 109.14 150.11 109.18C150.483 109.207 150.89 109.287 151.33 109.42C151.81 109.567 152.197 109.767 152.49 110.02C152.797 110.273 153.057 110.633 153.27 111.1C153.47 111.58 153.57 112.153 153.57 112.82V115.68C153.57 116.28 153.47 116.807 153.27 117.26C153.083 117.713 152.837 118.067 152.53 118.32C152.263 118.547 151.897 118.733 151.43 118.88C150.977 119.013 150.53 119.1 150.09 119.14C149.69 119.18 149.21 119.2 148.65 119.2ZM148.65 117.38C149.197 117.38 149.61 117.34 149.89 117.26C150.17 117.167 150.363 117.027 150.47 116.84C150.59 116.653 150.65 116.38 150.65 116.02V112.36C150.65 111.827 150.51 111.453 150.23 111.24C149.95 111.027 149.423 110.92 148.65 110.92C147.877 110.92 147.35 111.027 147.07 111.24C146.79 111.453 146.65 111.827 146.65 112.36V116.02C146.65 116.38 146.703 116.653 146.81 116.84C146.93 117.027 147.13 117.167 147.41 117.26C147.69 117.34 148.103 117.38 148.65 117.38ZM156.246 109.32H159.166V113.24C159.379 113.24 159.553 113.213 159.686 113.16C159.819 113.093 159.953 112.98 160.086 112.82L162.886 109.32H165.926L162.046 113.8C162.593 114.053 163.126 114.553 163.646 115.3L166.226 119H162.866L160.726 115.84C160.486 115.493 160.259 115.273 160.046 115.18C159.833 115.087 159.539 115.04 159.166 115.04V119H156.246V109.32ZM167.796 116.04C167.796 115.32 167.996 114.693 168.396 114.16C168.796 113.627 169.316 113.22 169.956 112.94C170.462 112.713 171.056 112.487 171.736 112.26C172.416 112.033 172.942 111.793 173.316 111.54C173.689 111.287 173.876 110.987 173.876 110.64V108.98C173.876 108.567 173.709 108.293 173.376 108.16C173.016 108.013 172.456 107.94 171.696 107.94C170.776 107.94 169.562 108.107 168.056 108.44V106.24C169.389 105.96 170.782 105.82 172.236 105.82C173.809 105.82 174.976 106.06 175.736 106.54C176.509 107.02 176.896 107.82 176.896 108.94V110.74C176.896 111.42 176.689 112.013 176.276 112.52C175.876 113.013 175.356 113.387 174.716 113.64C174.116 113.893 173.502 114.12 172.876 114.32C172.196 114.56 171.656 114.827 171.256 115.12C170.869 115.413 170.676 115.76 170.676 116.16V116.82H176.916V119H167.796V116.04ZM184.446 112.16H190.606V114.4H184.446V112.16ZM197.97 116.04C197.97 115.32 198.17 114.693 198.57 114.16C198.97 113.627 199.49 113.22 200.13 112.94C200.636 112.713 201.23 112.487 201.91 112.26C202.59 112.033 203.116 111.793 203.49 111.54C203.863 111.287 204.05 110.987 204.05 110.64V108.98C204.05 108.567 203.883 108.293 203.55 108.16C203.19 108.013 202.63 107.94 201.87 107.94C200.95 107.94 199.736 108.107 198.23 108.44V106.24C199.563 105.96 200.956 105.82 202.41 105.82C203.983 105.82 205.15 106.06 205.91 106.54C206.683 107.02 207.07 107.82 207.07 108.94V110.74C207.07 111.42 206.863 112.013 206.45 112.52C206.05 113.013 205.53 113.387 204.89 113.64C204.29 113.893 203.676 114.12 203.05 114.32C202.37 114.56 201.83 114.827 201.43 115.12C201.043 115.413 200.85 115.76 200.85 116.16V116.82H207.09V119H197.97V116.04ZM214.591 119.2C214.005 119.2 213.525 119.18 213.151 119.14C212.778 119.1 212.371 119.02 211.931 118.9C211.478 118.767 211.111 118.58 210.831 118.34C210.551 118.087 210.318 117.727 210.131 117.26C209.931 116.807 209.831 116.26 209.831 115.62V109.4C209.831 108.787 209.925 108.247 210.111 107.78C210.298 107.313 210.538 106.947 210.831 106.68C211.085 106.453 211.431 106.273 211.871 106.14C212.311 105.993 212.751 105.9 213.191 105.86C213.698 105.833 214.165 105.82 214.591 105.82C215.191 105.82 215.671 105.84 216.031 105.88C216.391 105.907 216.791 105.987 217.231 106.12C217.711 106.267 218.091 106.46 218.371 106.7C218.651 106.94 218.891 107.287 219.091 107.74C219.291 108.193 219.391 108.747 219.391 109.4V115.62C219.391 116.233 219.291 116.773 219.091 117.24C218.905 117.707 218.665 118.067 218.371 118.32C218.105 118.547 217.738 118.733 217.271 118.88C216.818 119.027 216.385 119.113 215.971 119.14C215.598 119.18 215.138 119.2 214.591 119.2ZM214.631 117.32C215.191 117.32 215.591 117.287 215.831 117.22C216.071 117.14 216.231 117 216.311 116.8C216.391 116.6 216.431 116.273 216.431 115.82V109.2C216.431 108.747 216.391 108.42 216.311 108.22C216.231 108.02 216.071 107.887 215.831 107.82C215.591 107.74 215.191 107.7 214.631 107.7C214.058 107.7 213.645 107.74 213.391 107.82C213.151 107.887 212.991 108.02 212.911 108.22C212.831 108.42 212.791 108.747 212.791 109.2V115.82C212.791 116.273 212.831 116.6 212.911 116.8C212.991 117 213.151 117.14 213.391 117.22C213.645 117.287 214.058 117.32 214.631 117.32ZM222.093 109.32H224.853V110.28C225.026 109.853 225.366 109.553 225.873 109.38C226.38 109.207 227.133 109.12 228.133 109.12C228.973 109.12 229.646 109.187 230.153 109.32C230.673 109.453 231.066 109.667 231.333 109.96C231.586 110.253 231.76 110.58 231.853 110.94C231.946 111.287 231.993 111.767 231.993 112.38V115.56C231.993 116.52 231.853 117.26 231.573 117.78C231.293 118.3 230.86 118.667 230.273 118.88C229.7 119.093 228.913 119.2 227.913 119.2C226.953 119.2 226.26 119.12 225.833 118.96C225.406 118.8 225.133 118.487 225.013 118.02V123.16H222.093V109.32ZM227.013 117.38C227.586 117.38 228.02 117.34 228.313 117.26C228.606 117.18 228.806 117.04 228.913 116.84C229.02 116.64 229.073 116.34 229.073 115.94V112.36C229.073 111.92 229.026 111.607 228.933 111.42C228.84 111.22 228.653 111.087 228.373 111.02C228.093 110.953 227.633 110.92 226.993 110.92C226.446 110.92 226.026 110.967 225.733 111.06C225.453 111.153 225.26 111.3 225.153 111.5C225.06 111.7 225.013 111.987 225.013 112.36V115.94C225.013 116.34 225.06 116.64 225.153 116.84C225.26 117.04 225.453 117.18 225.733 117.26C226.013 117.34 226.44 117.38 227.013 117.38ZM237.4 114.04L233.8 109.32H237.18L239.08 112.1L241 109.32H244.38L240.76 114.04L244.58 119H241.2L239.08 115.96L236.98 119H233.6L237.4 114.04ZM254.197 121.54C252.45 119.087 251.577 116.4 251.577 113.48C251.577 111.973 251.79 110.58 252.217 109.3C252.644 108.007 253.304 106.713 254.197 105.42H256.917C255.264 108.153 254.437 110.84 254.437 113.48C254.437 116.2 255.27 118.887 256.937 121.54H254.197ZM263.53 119.2C263.023 119.2 262.623 119.187 262.33 119.16C262.037 119.147 261.677 119.113 261.25 119.06C260.823 119.007 260.47 118.913 260.19 118.78C259.923 118.647 259.643 118.447 259.35 118.18C258.803 117.727 258.53 116.953 258.53 115.86V112.64C258.53 111.76 258.73 111.027 259.13 110.44C259.277 110.227 259.49 110.033 259.77 109.86C260.063 109.673 260.357 109.527 260.65 109.42C260.89 109.34 261.21 109.273 261.61 109.22C262.01 109.167 262.363 109.133 262.67 109.12H263.73C264.477 109.12 265.457 109.24 266.67 109.48V111.4C265.297 111.08 264.243 110.92 263.51 110.92C262.163 110.92 261.49 111.373 261.49 112.28V115.84C261.49 116.867 262.23 117.38 263.71 117.38C264.43 117.38 265.463 117.233 266.81 116.94V118.86C265.597 119.087 264.503 119.2 263.53 119.2ZM273.868 109.32H283.248V119H280.328V111.18H276.788V119H273.868V109.32ZM286.201 109.32H288.961V110.28C289.135 109.853 289.475 109.553 289.981 109.38C290.488 109.207 291.241 109.12 292.241 109.12C293.081 109.12 293.755 109.187 294.261 109.32C294.781 109.453 295.175 109.667 295.441 109.96C295.695 110.253 295.868 110.58 295.961 110.94C296.055 111.287 296.101 111.767 296.101 112.38V115.56C296.101 116.52 295.961 117.26 295.681 117.78C295.401 118.3 294.968 118.667 294.381 118.88C293.808 119.093 293.021 119.2 292.021 119.2C291.061 119.2 290.368 119.12 289.941 118.96C289.515 118.8 289.241 118.487 289.121 118.02V123.16H286.201V109.32ZM291.121 117.38C291.695 117.38 292.128 117.34 292.421 117.26C292.715 117.18 292.915 117.04 293.021 116.84C293.128 116.64 293.181 116.34 293.181 115.94V112.36C293.181 111.92 293.135 111.607 293.041 111.42C292.948 111.22 292.761 111.087 292.481 111.02C292.201 110.953 291.741 110.92 291.101 110.92C290.555 110.92 290.135 110.967 289.841 111.06C289.561 111.153 289.368 111.3 289.261 111.5C289.168 111.7 289.121 111.987 289.121 112.36V115.94C289.121 116.34 289.168 116.64 289.261 116.84C289.368 117.04 289.561 117.18 289.841 117.26C290.121 117.34 290.548 117.38 291.121 117.38ZM298.789 109.32H301.709V115.64L305.529 109.32H308.449V119H305.529V112.5L301.709 119H298.789V109.32ZM311.416 109.32H315.136L317.496 116L319.996 109.32H323.516V119H320.876V112.76H320.756L318.416 119H316.356L314.096 112.76H313.976V119H311.416V109.32ZM331.344 119.2C327.917 119.2 326.204 118.153 326.204 116.06V112.58C326.204 111.367 326.59 110.487 327.364 109.94C328.15 109.393 329.357 109.12 330.984 109.12C332.517 109.12 333.637 109.387 334.344 109.92C335.064 110.44 335.424 111.327 335.424 112.58V114.94H329.144V115.82C329.144 116.38 329.344 116.78 329.744 117.02C330.144 117.26 330.864 117.38 331.904 117.38C332.864 117.38 333.944 117.24 335.144 116.96V118.82C333.957 119.073 332.69 119.2 331.344 119.2ZM332.644 113.28V111.88C332.644 111.56 332.51 111.32 332.244 111.16C331.99 111 331.557 110.92 330.944 110.92C330.237 110.92 329.764 111 329.524 111.16C329.27 111.333 329.144 111.573 329.144 111.88V113.28H332.644ZM338.055 109.32H340.975V113.04H344.635V109.32H347.555V119H344.635V114.96H340.975V119H338.055V109.32ZM355.366 119.2C351.939 119.2 350.226 118.153 350.226 116.06V112.58C350.226 111.367 350.613 110.487 351.386 109.94C352.173 109.393 353.379 109.12 355.006 109.12C356.539 109.12 357.659 109.387 358.366 109.92C359.086 110.44 359.446 111.327 359.446 112.58V114.94H353.166V115.82C353.166 116.38 353.366 116.78 353.766 117.02C354.166 117.26 354.886 117.38 355.926 117.38C356.886 117.38 357.966 117.24 359.166 116.96V118.82C357.979 119.073 356.713 119.2 355.366 119.2ZM356.666 113.28V111.88C356.666 111.56 356.533 111.32 356.266 111.16C356.013 111 355.579 110.92 354.966 110.92C354.259 110.92 353.786 111 353.546 111.16C353.293 111.333 353.166 111.573 353.166 111.88V113.28H356.666ZM362.078 109.32H364.998V113.04H368.658V109.32H371.578V119H368.658V114.96H364.998V119H362.078V109.32ZM374.529 109.32H377.449V115.64L381.269 109.32H384.189V119H381.269V112.5L377.449 119H374.529V109.32ZM392.015 119.2C388.589 119.2 386.875 118.153 386.875 116.06V112.58C386.875 111.367 387.262 110.487 388.035 109.94C388.822 109.393 390.029 109.12 391.655 109.12C393.189 109.12 394.309 109.387 395.015 109.92C395.735 110.44 396.095 111.327 396.095 112.58V114.94H389.815V115.82C389.815 116.38 390.015 116.78 390.415 117.02C390.815 117.26 391.535 117.38 392.575 117.38C393.535 117.38 394.615 117.24 395.815 116.96V118.82C394.629 119.073 393.362 119.2 392.015 119.2ZM393.315 113.28V111.88C393.315 111.56 393.182 111.32 392.915 111.16C392.662 111 392.229 110.92 391.615 110.92C390.909 110.92 390.435 111 390.195 111.16C389.942 111.333 389.815 111.573 389.815 111.88V113.28H393.315ZM398.727 109.32H402.447L404.807 116L407.307 109.32H410.827V119H408.187V112.76H408.067L405.727 119H403.667L401.407 112.76H401.287V119H398.727V109.32ZM424.665 119.2C424.078 119.2 423.551 119.173 423.085 119.12C422.631 119.067 422.131 118.967 421.585 118.82C420.971 118.66 420.465 118.453 420.065 118.2C419.665 117.933 419.331 117.567 419.065 117.1C418.785 116.633 418.645 116.08 418.645 115.44V109.74C418.645 107.127 420.651 105.82 424.665 105.82C425.691 105.82 427.065 105.967 428.785 106.26V108.6C427.238 108.227 425.878 108.04 424.705 108.04C424.211 108.04 423.825 108.053 423.545 108.08C423.278 108.107 422.998 108.173 422.705 108.28C422.078 108.493 421.765 108.967 421.765 109.7V115.22C421.765 116.393 422.838 116.98 424.985 116.98C425.905 116.98 427.198 116.787 428.865 116.4V118.76C427.438 119.053 426.038 119.2 424.665 119.2ZM433.878 119.2C432.972 119.2 432.292 119.12 431.838 118.96C431.398 118.787 431.085 118.487 430.898 118.06C430.725 117.62 430.638 116.967 430.638 116.1C430.638 115.327 430.732 114.72 430.918 114.28C431.118 113.84 431.432 113.527 431.858 113.34C432.298 113.14 432.898 113.04 433.658 113.04H436.938V112.38C436.938 111.967 436.878 111.66 436.758 111.46C436.652 111.26 436.445 111.12 436.138 111.04C435.845 110.96 435.398 110.92 434.798 110.92C433.972 110.92 432.838 111 431.398 111.16V109.32C432.452 109.187 433.685 109.12 435.098 109.12C436.338 109.12 437.292 109.213 437.958 109.4C438.638 109.587 439.125 109.907 439.418 110.36C439.712 110.813 439.858 111.473 439.858 112.34V119H436.998V118.12C436.772 118.507 436.465 118.78 436.078 118.94C435.692 119.113 434.958 119.2 433.878 119.2ZM435.018 117.38C435.605 117.38 436.025 117.36 436.278 117.32C436.465 117.293 436.592 117.253 436.658 117.2C436.738 117.147 436.805 117.06 436.858 116.94C436.912 116.847 436.938 116.707 436.938 116.52V114.64H434.938C434.485 114.64 434.165 114.673 433.978 114.74C433.792 114.793 433.665 114.913 433.598 115.1C433.532 115.273 433.498 115.587 433.498 116.04C433.498 116.48 433.532 116.787 433.598 116.96C433.665 117.133 433.792 117.247 433.978 117.3C434.178 117.353 434.525 117.38 435.018 117.38ZM442.827 109.32H445.587V110.28C445.761 109.853 446.101 109.553 446.607 109.38C447.114 109.207 447.867 109.12 448.867 109.12C449.707 109.12 450.381 109.187 450.887 109.32C451.407 109.453 451.801 109.667 452.067 109.96C452.321 110.253 452.494 110.58 452.587 110.94C452.681 111.287 452.727 111.767 452.727 112.38V115.56C452.727 116.52 452.587 117.26 452.307 117.78C452.027 118.3 451.594 118.667 451.007 118.88C450.434 119.093 449.647 119.2 448.647 119.2C447.687 119.2 446.994 119.12 446.567 118.96C446.141 118.8 445.867 118.487 445.747 118.02V123.16H442.827V109.32ZM447.747 117.38C448.321 117.38 448.754 117.34 449.047 117.26C449.341 117.18 449.541 117.04 449.647 116.84C449.754 116.64 449.807 116.34 449.807 115.94V112.36C449.807 111.92 449.761 111.607 449.667 111.42C449.574 111.22 449.387 111.087 449.107 111.02C448.827 110.953 448.367 110.92 447.727 110.92C447.181 110.92 446.761 110.967 446.467 111.06C446.187 111.153 445.994 111.3 445.887 111.5C445.794 111.7 445.747 111.987 445.747 112.36V115.94C445.747 116.34 445.794 116.64 445.887 116.84C445.994 117.04 446.187 117.18 446.467 117.26C446.747 117.34 447.174 117.38 447.747 117.38ZM459.035 119.2C457.995 119.2 456.721 119.1 455.215 118.9V116.96C457.068 117.24 458.355 117.38 459.075 117.38C459.688 117.38 460.141 117.32 460.435 117.2C460.728 117.08 460.875 116.86 460.875 116.54V115.94C460.875 115.607 460.781 115.373 460.595 115.24C460.408 115.093 460.041 115.02 459.495 115.02H458.235C457.208 115.02 456.415 114.82 455.855 114.42C455.295 114.007 455.015 113.407 455.015 112.62V111.44C455.015 110.6 455.415 110.007 456.215 109.66C457.015 109.3 458.221 109.12 459.835 109.12C460.475 109.12 461.621 109.18 463.275 109.3V111.16C461.195 111 460.021 110.92 459.755 110.92C458.968 110.92 458.455 110.973 458.215 111.08C458.001 111.2 457.895 111.42 457.895 111.74V112.26C457.895 112.433 457.981 112.587 458.155 112.72C458.328 112.84 458.581 112.9 458.915 112.9H460.195C462.568 112.9 463.755 113.673 463.755 115.22V116.44C463.755 116.907 463.668 117.313 463.495 117.66C463.321 118.007 463.095 118.28 462.815 118.48C462.548 118.667 462.201 118.813 461.775 118.92C461.361 119.027 460.928 119.1 460.475 119.14C460.061 119.18 459.581 119.2 459.035 119.2ZM465.043 121.54C466.709 118.887 467.543 116.2 467.543 113.48C467.543 110.84 466.716 108.153 465.063 105.42H467.783C468.676 106.713 469.336 108.007 469.763 109.3C470.189 110.58 470.403 111.973 470.403 113.48C470.403 116.4 469.529 119.087 467.783 121.54H465.043Z" fill="white"/>
<path d="M61.68 148.02H72.06V161H70.12V149.36H63.62V161H61.68V148.02ZM79.7905 161.2C78.9371 161.2 78.2971 161.167 77.8705 161.1C77.4438 161.047 77.0171 160.92 76.5905 160.72C76.1505 160.52 75.8305 160.2 75.6305 159.76C75.4305 159.307 75.3305 158.7 75.3305 157.94V154.58C75.3305 153.98 75.4038 153.453 75.5505 153C75.6971 152.547 75.8905 152.193 76.1305 151.94C76.3305 151.713 76.6305 151.54 77.0305 151.42C77.4438 151.287 77.8638 151.2 78.2905 151.16C78.7705 151.133 79.2705 151.12 79.7905 151.12C80.4838 151.12 81.0038 151.14 81.3505 151.18C81.7105 151.207 82.0905 151.273 82.4905 151.38C82.9038 151.5 83.2238 151.68 83.4505 151.92C83.6771 152.16 83.8705 152.507 84.0305 152.96C84.1771 153.427 84.2505 153.967 84.2505 154.58V157.94C84.2505 159.073 83.9905 159.9 83.4705 160.42C83.2571 160.633 82.9505 160.8 82.5505 160.92C82.1505 161.04 81.7371 161.12 81.3105 161.16C80.8038 161.187 80.2971 161.2 79.7905 161.2ZM79.7905 160.02C80.3505 160.02 80.7571 160.007 81.0105 159.98C81.2638 159.953 81.5105 159.88 81.7505 159.76C81.9905 159.653 82.1571 159.48 82.2505 159.24C82.3571 158.987 82.4105 158.64 82.4105 158.2V154.28C82.4105 153.68 82.3371 153.247 82.1905 152.98C82.0438 152.7 81.7905 152.52 81.4305 152.44C81.0838 152.347 80.5371 152.3 79.7905 152.3C79.0438 152.3 78.4905 152.347 78.1305 152.44C77.7838 152.52 77.5371 152.7 77.3905 152.98C77.2438 153.247 77.1705 153.68 77.1705 154.28V158.2C77.1705 158.64 77.2171 158.987 77.3105 159.24C77.4171 159.48 77.5905 159.653 77.8305 159.76C78.0705 159.88 78.3171 159.953 78.5705 159.98C78.8238 160.007 79.2305 160.02 79.7905 160.02ZM96.6377 159.82V163.68H95.0977V161H87.6377V163.68H86.0977V159.82H86.7177C87.011 159.82 87.2977 159.6 87.5777 159.16C87.8577 158.707 88.091 157.987 88.2777 157C88.4643 156 88.5577 154.733 88.5577 153.2V151.32H95.2777V159.82H96.6377ZM93.4777 159.82V152.5H90.1377V153.9C90.1377 155.287 90.0443 156.48 89.8577 157.48C89.6843 158.467 89.3577 159.247 88.8777 159.82H93.4777ZM101.365 161.2C100.579 161.2 99.672 161.087 98.6453 160.86V159.44C99.6453 159.733 100.552 159.88 101.365 159.88C102.285 159.88 102.959 159.78 103.385 159.58C103.812 159.367 104.025 158.967 104.025 158.38V157.76C104.025 157.267 103.805 156.94 103.365 156.78C102.939 156.607 102.332 156.52 101.545 156.52H100.445V155.28H101.205C102.019 155.28 102.639 155.187 103.065 155C103.492 154.813 103.705 154.48 103.705 154V153.4C103.705 152.707 102.905 152.36 101.305 152.36C100.465 152.36 99.6453 152.44 98.8453 152.6V151.3C99.6053 151.18 100.419 151.12 101.285 151.12C102.312 151.12 103.112 151.173 103.685 151.28C104.259 151.387 104.705 151.587 105.025 151.88C105.359 152.173 105.525 152.647 105.525 153.3V154.08C105.525 154.507 105.365 154.86 105.045 155.14C104.739 155.407 104.339 155.58 103.845 155.66V155.74C105.219 155.953 105.905 156.547 105.905 157.52V158.52C105.905 158.973 105.812 159.38 105.625 159.74C105.452 160.087 105.219 160.353 104.925 160.54C104.525 160.793 104.019 160.967 103.405 161.06C102.805 161.153 102.125 161.2 101.365 161.2ZM112.038 161.2C111.118 161.2 110.405 161.113 109.898 160.94C109.405 160.767 109.045 160.46 108.818 160.02C108.605 159.58 108.498 158.947 108.498 158.12C108.498 157.387 108.598 156.82 108.798 156.42C109.012 156.007 109.365 155.713 109.858 155.54C110.365 155.367 111.078 155.28 111.998 155.28H114.898V153.74C114.898 153.38 114.825 153.107 114.678 152.92C114.545 152.72 114.312 152.58 113.978 152.5C113.658 152.42 113.185 152.38 112.558 152.38C111.558 152.38 110.452 152.46 109.238 152.62V151.3C110.558 151.18 111.752 151.12 112.818 151.12C113.938 151.12 114.765 151.207 115.298 151.38C115.832 151.54 116.198 151.827 116.398 152.24C116.598 152.653 116.698 153.293 116.698 154.16V161H114.958V160.08C114.812 160.827 113.838 161.2 112.038 161.2ZM112.338 160.02C112.992 160.02 113.545 159.973 113.998 159.88C114.598 159.76 114.898 159.48 114.898 159.04V156.4H112.118C111.545 156.4 111.132 156.447 110.878 156.54C110.625 156.62 110.458 156.78 110.378 157.02C110.298 157.26 110.258 157.647 110.258 158.18C110.258 158.66 110.305 159.033 110.398 159.3C110.492 159.553 110.658 159.74 110.898 159.86C111.138 159.967 111.498 160.02 111.978 160.02H112.338ZM120.34 151.32H126.66V152.64H122.14V161H120.34V151.32ZM133.119 161.2C132.265 161.2 131.625 161.167 131.199 161.1C130.772 161.047 130.345 160.92 129.919 160.72C129.479 160.52 129.159 160.2 128.959 159.76C128.759 159.307 128.659 158.7 128.659 157.94V154.58C128.659 153.98 128.732 153.453 128.879 153C129.025 152.547 129.219 152.193 129.459 151.94C129.659 151.713 129.959 151.54 130.359 151.42C130.772 151.287 131.192 151.2 131.619 151.16C132.099 151.133 132.599 151.12 133.119 151.12C133.812 151.12 134.332 151.14 134.679 151.18C135.039 151.207 135.419 151.273 135.819 151.38C136.232 151.5 136.552 151.68 136.779 151.92C137.005 152.16 137.199 152.507 137.359 152.96C137.505 153.427 137.579 153.967 137.579 154.58V157.94C137.579 159.073 137.319 159.9 136.799 160.42C136.585 160.633 136.279 160.8 135.879 160.92C135.479 161.04 135.065 161.12 134.639 161.16C134.132 161.187 133.625 161.2 133.119 161.2ZM133.119 160.02C133.679 160.02 134.085 160.007 134.339 159.98C134.592 159.953 134.839 159.88 135.079 159.76C135.319 159.653 135.485 159.48 135.579 159.24C135.685 158.987 135.739 158.64 135.739 158.2V154.28C135.739 153.68 135.665 153.247 135.519 152.98C135.372 152.7 135.119 152.52 134.759 152.44C134.412 152.347 133.865 152.3 133.119 152.3C132.372 152.3 131.819 152.347 131.459 152.44C131.112 152.52 130.865 152.7 130.719 152.98C130.572 153.247 130.499 153.68 130.499 154.28V158.2C130.499 158.64 130.545 158.987 130.639 159.24C130.745 159.48 130.919 159.653 131.159 159.76C131.399 159.88 131.645 159.953 131.899 159.98C132.152 160.007 132.559 160.02 133.119 160.02ZM140.406 161.02C140.206 161.02 140.012 161 139.826 160.96V159.42C140.012 159.46 140.199 159.48 140.386 159.48C140.959 159.48 141.412 159.067 141.746 158.24C142.092 157.4 142.266 155.853 142.266 153.6V151.32H148.846V161H147.046V152.5H143.866V153.9C143.866 156.1 143.606 157.84 143.086 159.12C142.566 160.387 141.672 161.02 140.406 161.02ZM156.458 161.2C155.604 161.2 154.964 161.167 154.538 161.1C154.111 161.047 153.684 160.92 153.258 160.72C152.818 160.52 152.498 160.2 152.298 159.76C152.098 159.307 151.998 158.7 151.998 157.94V154.58C151.998 153.98 152.071 153.453 152.218 153C152.364 152.547 152.558 152.193 152.798 151.94C152.998 151.713 153.298 151.54 153.698 151.42C154.111 151.287 154.531 151.2 154.958 151.16C155.438 151.133 155.938 151.12 156.458 151.12C157.151 151.12 157.671 151.14 158.018 151.18C158.378 151.207 158.758 151.273 159.158 151.38C159.571 151.5 159.891 151.68 160.118 151.92C160.344 152.16 160.538 152.507 160.698 152.96C160.844 153.427 160.918 153.967 160.918 154.58V157.94C160.918 159.073 160.658 159.9 160.138 160.42C159.924 160.633 159.618 160.8 159.218 160.92C158.818 161.04 158.404 161.12 157.978 161.16C157.471 161.187 156.964 161.2 156.458 161.2ZM156.458 160.02C157.018 160.02 157.424 160.007 157.678 159.98C157.931 159.953 158.178 159.88 158.418 159.76C158.658 159.653 158.824 159.48 158.918 159.24C159.024 158.987 159.078 158.64 159.078 158.2V154.28C159.078 153.68 159.004 153.247 158.858 152.98C158.711 152.7 158.458 152.52 158.098 152.44C157.751 152.347 157.204 152.3 156.458 152.3C155.711 152.3 155.158 152.347 154.798 152.44C154.451 152.52 154.204 152.7 154.058 152.98C153.911 153.247 153.838 153.68 153.838 154.28V158.2C153.838 158.64 153.884 158.987 153.978 159.24C154.084 159.48 154.258 159.653 154.498 159.76C154.738 159.88 154.984 159.953 155.238 159.98C155.491 160.007 155.898 160.02 156.458 160.02ZM164.245 151.32H168.485C169.352 151.32 170.045 151.373 170.565 151.48C171.085 151.573 171.465 151.74 171.705 151.98C171.932 152.207 172.078 152.44 172.145 152.68C172.212 152.92 172.245 153.253 172.245 153.68V154.02C172.245 154.54 172.112 154.927 171.845 155.18C171.578 155.433 171.132 155.627 170.505 155.76V155.84C172.052 156.107 172.825 156.78 172.825 157.86V158.44C172.825 159.093 172.692 159.607 172.425 159.98C172.172 160.34 171.745 160.6 171.145 160.76C170.545 160.92 169.705 161 168.625 161H164.245V151.32ZM168.645 155.4C169.178 155.4 169.578 155.36 169.845 155.28C170.112 155.187 170.292 155.047 170.385 154.86C170.478 154.66 170.525 154.36 170.525 153.96V153.84C170.525 153.48 170.472 153.213 170.365 153.04C170.272 152.867 170.085 152.747 169.805 152.68C169.538 152.6 169.132 152.56 168.585 152.56H166.045V155.4H168.645ZM168.725 159.7C169.352 159.7 169.825 159.66 170.145 159.58C170.465 159.5 170.685 159.373 170.805 159.2C170.925 159.013 170.985 158.74 170.985 158.38V157.74C170.985 157.407 170.845 157.127 170.565 156.9C170.272 156.687 169.692 156.58 168.825 156.58H166.045V159.7H168.725ZM180.09 161.2C179.236 161.2 178.596 161.167 178.17 161.1C177.743 161.047 177.316 160.92 176.89 160.72C176.45 160.52 176.13 160.2 175.93 159.76C175.73 159.307 175.63 158.7 175.63 157.94V154.58C175.63 153.98 175.703 153.453 175.85 153C175.996 152.547 176.19 152.193 176.43 151.94C176.63 151.713 176.93 151.54 177.33 151.42C177.743 151.287 178.163 151.2 178.59 151.16C179.07 151.133 179.57 151.12 180.09 151.12C180.783 151.12 181.303 151.14 181.65 151.18C182.01 151.207 182.39 151.273 182.79 151.38C183.203 151.5 183.523 151.68 183.75 151.92C183.976 152.16 184.17 152.507 184.33 152.96C184.476 153.427 184.55 153.967 184.55 154.58V157.94C184.55 159.073 184.29 159.9 183.77 160.42C183.556 160.633 183.25 160.8 182.85 160.92C182.45 161.04 182.036 161.12 181.61 161.16C181.103 161.187 180.596 161.2 180.09 161.2ZM180.09 160.02C180.65 160.02 181.056 160.007 181.31 159.98C181.563 159.953 181.81 159.88 182.05 159.76C182.29 159.653 182.456 159.48 182.55 159.24C182.656 158.987 182.71 158.64 182.71 158.2V154.28C182.71 153.68 182.636 153.247 182.49 152.98C182.343 152.7 182.09 152.52 181.73 152.44C181.383 152.347 180.836 152.3 180.09 152.3C179.343 152.3 178.79 152.347 178.43 152.44C178.083 152.52 177.836 152.7 177.69 152.98C177.543 153.247 177.47 153.68 177.47 154.28V158.2C177.47 158.64 177.516 158.987 177.61 159.24C177.716 159.48 177.89 159.653 178.13 159.76C178.37 159.88 178.616 159.953 178.87 159.98C179.123 160.007 179.53 160.02 180.09 160.02ZM187.737 151.32H189.537V155.5C189.737 155.5 189.897 155.46 190.017 155.38C190.15 155.287 190.31 155.147 190.497 154.96L193.857 151.32H196.057L191.657 155.9C191.83 155.94 192.077 156.12 192.397 156.44C192.73 156.76 193.217 157.28 193.857 158L196.557 161H194.337L191.697 158C191.337 157.587 190.984 157.26 190.637 157.02C190.37 156.847 190.184 156.747 190.077 156.72C189.97 156.68 189.864 156.66 189.757 156.66C189.65 156.66 189.577 156.66 189.537 156.66V161H187.737V151.32ZM203.016 149.82L199.076 152.4V150.76L203.036 148.02H204.756V161H203.016V149.82ZM214.447 154.56H220.007V156H214.447V154.56ZM232.604 149.82L228.664 152.4V150.76L232.624 148.02H234.344V161H232.604V149.82ZM246.906 149.32H239.466V148.02H248.586V149.32L243.626 161H241.706L246.906 149.32ZM251.787 151.32H253.567V152.36H253.587C253.734 151.533 254.834 151.12 256.887 151.12C258.114 151.12 259.041 151.38 259.667 151.9C260.294 152.407 260.607 153.06 260.607 153.86V157.84C260.607 158.413 260.521 158.913 260.347 159.34C260.187 159.767 259.974 160.1 259.707 160.34C259.467 160.567 259.134 160.747 258.707 160.88C258.294 161.013 257.881 161.1 257.467 161.14C257.094 161.18 256.641 161.2 256.107 161.2C255.521 161.2 254.981 161.133 254.487 161C254.007 160.853 253.707 160.647 253.587 160.38V165.16H251.787V151.32ZM256.147 159.98C256.841 159.98 257.367 159.933 257.727 159.84C258.101 159.733 258.367 159.547 258.527 159.28C258.687 159.013 258.767 158.607 258.767 158.06V154.5C258.767 153.9 258.687 153.453 258.527 153.16C258.367 152.867 258.101 152.673 257.727 152.58C257.367 152.473 256.834 152.42 256.127 152.42C255.421 152.42 254.894 152.473 254.547 152.58C254.201 152.673 253.954 152.867 253.807 153.16C253.661 153.44 253.587 153.887 253.587 154.5V158.06C253.587 158.607 253.661 159.013 253.807 159.28C253.967 159.547 254.227 159.733 254.587 159.84C254.947 159.933 255.467 159.98 256.147 159.98ZM266.009 156.02L262.609 151.32H264.589L266.989 154.86L269.409 151.32H271.389L267.989 156.02L271.589 161H269.609L266.989 157.18L264.389 161H262.409L266.009 156.02Z" fill="url(#paint0_linear_0_1)"/>
<rect x="40" y="4" width="110.039" height="30" rx="3" fill="#1E0044"/>
<rect x="40.5" y="4.5" width="109.039" height="29" rx="2.5" stroke="black" stroke-opacity="0.2"/>
<path d="M46.5313 14.8594V14H52.5312V14.8594H50.0156V22H49.0469V14.8594H46.5313ZM55.5469 22.125C54.9688 22.125 54.4701 21.9974 54.0508 21.7422C53.6341 21.4844 53.3125 21.125 53.0859 20.6641C52.862 20.2005 52.75 19.6615 52.75 19.0469C52.75 18.4323 52.862 17.8906 53.0859 17.4219C53.3125 16.9505 53.6276 16.5833 54.0313 16.3203C54.4375 16.0547 54.9115 15.9219 55.4531 15.9219C55.7656 15.9219 56.0742 15.974 56.3789 16.0781C56.6836 16.1823 56.9609 16.3516 57.2109 16.5859C57.4609 16.8177 57.6602 17.125 57.8086 17.5078C57.957 17.8906 58.0312 18.362 58.0312 18.9219V19.3125H53.4063V18.5156H57.0938C57.0938 18.1771 57.026 17.875 56.8906 17.6094C56.7578 17.3437 56.5677 17.1341 56.3203 16.9805C56.0755 16.8268 55.7865 16.75 55.4531 16.75C55.0859 16.75 54.7682 16.8411 54.5 17.0234C54.2344 17.2031 54.0299 17.4375 53.8867 17.7266C53.7435 18.0156 53.6719 18.3255 53.6719 18.6562V19.1875C53.6719 19.6406 53.75 20.0247 53.9062 20.3398C54.0651 20.6523 54.2852 20.8906 54.5664 21.0547C54.8477 21.2161 55.1745 21.2969 55.5469 21.2969C55.7891 21.2969 56.0078 21.263 56.2031 21.1953C56.401 21.125 56.5716 21.0208 56.7148 20.8828C56.8581 20.7422 56.9688 20.5677 57.0469 20.3594L57.9375 20.6094C57.8438 20.9115 57.6862 21.1771 57.4648 21.4062C57.2435 21.6328 56.9701 21.8099 56.6445 21.9375C56.319 22.0625 55.9531 22.125 55.5469 22.125ZM59.96 16L61.3975 18.4531L62.835 16H63.8975L61.96 19L63.8975 22H62.835L61.3975 19.6719L59.96 22H58.8975L60.8037 19L58.8975 16H59.96ZM67.8223 16V16.7812H64.7129V16H67.8223ZM65.6191 14.5625H66.541V20.2812C66.541 20.5417 66.5788 20.737 66.6543 20.8672C66.7324 20.9948 66.8314 21.0807 66.9512 21.125C67.0736 21.1667 67.2025 21.1875 67.3379 21.1875C67.4395 21.1875 67.5228 21.1823 67.5879 21.1719C67.653 21.1589 67.7051 21.1484 67.7441 21.1406L67.9316 21.9687C67.8691 21.9922 67.7819 22.0156 67.6699 22.0391C67.5579 22.0651 67.416 22.0781 67.2441 22.0781C66.9837 22.0781 66.7285 22.0221 66.4785 21.9102C66.2311 21.7982 66.0254 21.6276 65.8613 21.3984C65.6999 21.1693 65.6191 20.8802 65.6191 20.5312V14.5625ZM73.3496 22V22.8594H68.3496V22H73.3496ZM78.4326 17.3437L77.6045 17.5781C77.5524 17.4401 77.4756 17.306 77.374 17.1758C77.2751 17.043 77.1396 16.9336 76.9678 16.8477C76.7959 16.7617 76.5758 16.7187 76.3076 16.7187C75.9404 16.7187 75.6344 16.8034 75.3896 16.9727C75.1475 17.1393 75.0264 17.3516 75.0264 17.6094C75.0264 17.8385 75.1097 18.0195 75.2764 18.1523C75.443 18.2852 75.7035 18.3958 76.0576 18.4844L76.9482 18.7031C77.4847 18.8333 77.8844 19.0326 78.1475 19.3008C78.4105 19.5664 78.542 19.9089 78.542 20.3281C78.542 20.6719 78.443 20.9792 78.2451 21.25C78.0498 21.5208 77.7764 21.7344 77.4248 21.8906C77.0732 22.0469 76.6644 22.125 76.1982 22.125C75.5863 22.125 75.0798 21.9922 74.6787 21.7266C74.2777 21.4609 74.0238 21.0729 73.917 20.5625L74.792 20.3437C74.8753 20.6667 75.0329 20.9089 75.2646 21.0703C75.499 21.2318 75.805 21.3125 76.1826 21.3125C76.6123 21.3125 76.9535 21.2214 77.2061 21.0391C77.4613 20.8542 77.5889 20.6328 77.5889 20.375C77.5889 20.1667 77.516 19.9922 77.3701 19.8516C77.2243 19.7083 77.0003 19.6016 76.6982 19.5312L75.6982 19.2969C75.1488 19.1667 74.7451 18.9648 74.4873 18.6914C74.2321 18.4154 74.1045 18.0703 74.1045 17.6562C74.1045 17.3177 74.1995 17.0182 74.3896 16.7578C74.5824 16.4974 74.8441 16.293 75.1748 16.1445C75.5081 15.9961 75.8857 15.9219 76.3076 15.9219C76.9014 15.9219 77.3675 16.0521 77.7061 16.3125C78.0472 16.5729 78.2894 16.9167 78.4326 17.3437ZM82.5391 16V16.7812H79.4297V16H82.5391ZM80.3359 14.5625H81.2578V20.2812C81.2578 20.5417 81.2956 20.737 81.3711 20.8672C81.4492 20.9948 81.5482 21.0807 81.668 21.125C81.7904 21.1667 81.9193 21.1875 82.0547 21.1875C82.1563 21.1875 82.2396 21.1823 82.3047 21.1719C82.3698 21.1589 82.4219 21.1484 82.4609 21.1406L82.6484 21.9687C82.5859 21.9922 82.4987 22.0156 82.3867 22.0391C82.2747 22.0651 82.1328 22.0781 81.9609 22.0781C81.7005 22.0781 81.4453 22.0221 81.1953 21.9102C80.9479 21.7982 80.7422 21.6276 80.5781 21.3984C80.4167 21.1693 80.3359 20.8802 80.3359 20.5312V14.5625ZM84.5195 24.25C84.3633 24.25 84.224 24.237 84.1016 24.2109C83.9792 24.1875 83.8945 24.1641 83.8477 24.1406L84.082 23.3281C84.306 23.3854 84.5039 23.4063 84.6758 23.3906C84.8477 23.375 85 23.2982 85.1328 23.1602C85.2682 23.0247 85.3919 22.8047 85.5039 22.5L85.6758 22.0313L83.457 16H84.457L86.1133 20.7812H86.1758L87.832 16H88.832L86.2852 22.875C86.1706 23.1849 86.0286 23.4414 85.8594 23.6445C85.6901 23.8503 85.4935 24.0026 85.2695 24.1016C85.0482 24.2005 84.7982 24.25 84.5195 24.25ZM90.9707 14V22H90.0488V14H90.9707ZM95.1748 22.125C94.5967 22.125 94.098 21.9974 93.6787 21.7422C93.262 21.4844 92.9404 21.125 92.7139 20.6641C92.4899 20.2005 92.3779 19.6615 92.3779 19.0469C92.3779 18.4323 92.4899 17.8906 92.7139 17.4219C92.9404 16.9505 93.2555 16.5833 93.6592 16.3203C94.0654 16.0547 94.5394 15.9219 95.0811 15.9219C95.3936 15.9219 95.7021 15.974 96.0068 16.0781C96.3115 16.1823 96.5889 16.3516 96.8389 16.5859C97.0889 16.8177 97.2881 17.125 97.4365 17.5078C97.585 17.8906 97.6592 18.362 97.6592 18.9219V19.3125H93.0342V18.5156H96.7217C96.7217 18.1771 96.654 17.875 96.5186 17.6094C96.3857 17.3437 96.1956 17.1341 95.9482 16.9805C95.7035 16.8268 95.4144 16.75 95.0811 16.75C94.7139 16.75 94.3962 16.8411 94.1279 17.0234C93.8623 17.2031 93.6579 17.4375 93.5146 17.7266C93.3714 18.0156 93.2998 18.3255 93.2998 18.6562V19.1875C93.2998 19.6406 93.3779 20.0247 93.5342 20.3398C93.693 20.6523 93.9131 20.8906 94.1943 21.0547C94.4756 21.2161 94.8024 21.2969 95.1748 21.2969C95.417 21.2969 95.6357 21.263 95.8311 21.1953C96.029 21.125 96.1995 21.0208 96.3428 20.8828C96.486 20.7422 96.5967 20.5677 96.6748 20.3594L97.5654 20.6094C97.4717 20.9115 97.3141 21.1771 97.0928 21.4062C96.8714 21.6328 96.598 21.8099 96.2725 21.9375C95.9469 22.0625 95.5811 22.125 95.1748 22.125ZM103.312 17.3437L102.483 17.5781C102.431 17.4401 102.354 17.306 102.253 17.1758C102.154 17.043 102.019 16.9336 101.847 16.8477C101.675 16.7617 101.455 16.7187 101.187 16.7187C100.819 16.7187 100.513 16.8034 100.269 16.9727C100.026 17.1393 99.9053 17.3516 99.9053 17.6094C99.9053 17.8385 99.9886 18.0195 100.155 18.1523C100.322 18.2852 100.582 18.3958 100.937 18.4844L101.827 18.7031C102.364 18.8333 102.763 19.0326 103.026 19.3008C103.289 19.5664 103.421 19.9089 103.421 20.3281C103.421 20.6719 103.322 20.9792 103.124 21.25C102.929 21.5208 102.655 21.7344 102.304 21.8906C101.952 22.0469 101.543 22.125 101.077 22.125C100.465 22.125 99.9587 21.9922 99.5576 21.7266C99.1566 21.4609 98.9027 21.0729 98.7959 20.5625L99.6709 20.3437C99.7542 20.6667 99.9118 20.9089 100.144 21.0703C100.378 21.2318 100.684 21.3125 101.062 21.3125C101.491 21.3125 101.832 21.2214 102.085 21.0391C102.34 20.8542 102.468 20.6328 102.468 20.375C102.468 20.1667 102.395 19.9922 102.249 19.8516C102.103 19.7083 101.879 19.6016 101.577 19.5312L100.577 19.2969C100.028 19.1667 99.624 18.9648 99.3662 18.6914C99.111 18.4154 98.9834 18.0703 98.9834 17.6562C98.9834 17.3177 99.0785 17.0182 99.2686 16.7578C99.4613 16.4974 99.723 16.293 100.054 16.1445C100.387 15.9961 100.765 15.9219 101.187 15.9219C101.78 15.9219 102.246 16.0521 102.585 16.3125C102.926 16.5729 103.168 16.9167 103.312 17.3437ZM108.949 22V22.8594H103.949V22H108.949ZM110.287 22V16H111.178V16.9375H111.256C111.381 16.6172 111.583 16.3685 111.861 16.1914C112.14 16.0117 112.475 15.9219 112.865 15.9219C113.261 15.9219 113.59 16.0117 113.854 16.1914C114.119 16.3685 114.326 16.6172 114.475 16.9375H114.537C114.691 16.6276 114.921 16.3815 115.229 16.1992C115.536 16.0143 115.904 15.9219 116.334 15.9219C116.87 15.9219 117.309 16.0898 117.65 16.4258C117.992 16.7591 118.162 17.2786 118.162 17.9844V22H117.24V17.9844C117.24 17.5417 117.119 17.2253 116.877 17.0352C116.635 16.8451 116.35 16.75 116.021 16.75C115.6 16.75 115.273 16.8776 115.041 17.1328C114.809 17.3854 114.693 17.7057 114.693 18.0937V22H113.756V17.8906C113.756 17.5495 113.645 17.2747 113.424 17.0664C113.202 16.8555 112.917 16.75 112.568 16.75C112.329 16.75 112.105 16.8138 111.896 16.9414C111.691 17.069 111.524 17.2461 111.396 17.4727C111.271 17.6966 111.209 17.9557 111.209 18.25V22H110.287ZM122.285 22.125C121.743 22.125 121.268 21.9961 120.859 21.7383C120.453 21.4805 120.135 21.1198 119.906 20.6562C119.68 20.1927 119.566 19.651 119.566 19.0312C119.566 18.4062 119.68 17.8607 119.906 17.3945C120.135 16.9284 120.453 16.5664 120.859 16.3086C121.268 16.0508 121.743 15.9219 122.285 15.9219C122.827 15.9219 123.301 16.0508 123.707 16.3086C124.116 16.5664 124.434 16.9284 124.66 17.3945C124.889 17.8607 125.004 18.4062 125.004 19.0312C125.004 19.651 124.889 20.1927 124.66 20.6562C124.434 21.1198 124.116 21.4805 123.707 21.7383C123.301 21.9961 122.827 22.125 122.285 22.125ZM122.285 21.2969C122.697 21.2969 123.035 21.1914 123.301 20.9805C123.566 20.7695 123.763 20.4922 123.891 20.1484C124.018 19.8047 124.082 19.4323 124.082 19.0312C124.082 18.6302 124.018 18.2565 123.891 17.9102C123.763 17.5638 123.566 17.2839 123.301 17.0703C123.035 16.8568 122.697 16.75 122.285 16.75C121.874 16.75 121.535 16.8568 121.27 17.0703C121.004 17.2839 120.807 17.5638 120.68 17.9102C120.552 18.2565 120.488 18.6302 120.488 19.0312C120.488 19.4323 120.552 19.8047 120.68 20.1484C120.807 20.4922 121.004 20.7695 121.27 20.9805C121.535 21.1914 121.874 21.2969 122.285 21.2969ZM126.536 22V14H127.458V16.9531H127.536C127.604 16.849 127.698 16.7161 127.817 16.5547C127.94 16.3906 128.114 16.2448 128.341 16.1172C128.57 15.987 128.88 15.9219 129.271 15.9219C129.776 15.9219 130.221 16.0482 130.606 16.3008C130.992 16.5534 131.293 16.9115 131.509 17.375C131.725 17.8385 131.833 18.3854 131.833 19.0156C131.833 19.651 131.725 20.2018 131.509 20.668C131.293 21.1315 130.993 21.4909 130.61 21.7461C130.228 21.9987 129.786 22.125 129.286 22.125C128.901 22.125 128.592 22.0612 128.36 21.9336C128.129 21.8034 127.95 21.6562 127.825 21.4922C127.7 21.3255 127.604 21.1875 127.536 21.0781H127.427V22H126.536ZM127.442 19C127.442 19.4531 127.509 19.8529 127.642 20.1992C127.774 20.543 127.968 20.8125 128.224 21.0078C128.479 21.2005 128.791 21.2969 129.161 21.2969C129.547 21.2969 129.868 21.1953 130.126 20.9922C130.386 20.7865 130.582 20.5104 130.712 20.1641C130.845 19.8151 130.911 19.4271 130.911 19C130.911 18.5781 130.846 18.1979 130.716 17.8594C130.588 17.5182 130.394 17.2487 130.134 17.0508C129.876 16.8503 129.552 16.75 129.161 16.75C128.786 16.75 128.471 16.8451 128.216 17.0352C127.961 17.2227 127.768 17.4857 127.638 17.8242C127.507 18.1602 127.442 18.5521 127.442 19ZM133.243 22V16H134.165V22H133.243ZM133.712 15C133.532 15 133.377 14.9388 133.247 14.8164C133.119 14.694 133.056 14.5469 133.056 14.375C133.056 14.2031 133.119 14.056 133.247 13.9336C133.377 13.8112 133.532 13.75 133.712 13.75C133.892 13.75 134.045 13.8112 134.173 13.9336C134.303 14.056 134.368 14.2031 134.368 14.375C134.368 14.5469 134.303 14.694 134.173 14.8164C134.045 14.9388 133.892 15 133.712 15ZM136.775 14V22H135.854V14H136.775ZM140.979 22.125C140.401 22.125 139.903 21.9974 139.483 21.7422C139.067 21.4844 138.745 21.125 138.519 20.6641C138.295 20.2005 138.183 19.6615 138.183 19.0469C138.183 18.4323 138.295 17.8906 138.519 17.4219C138.745 16.9505 139.06 16.5833 139.464 16.3203C139.87 16.0547 140.344 15.9219 140.886 15.9219C141.198 15.9219 141.507 15.974 141.812 16.0781C142.116 16.1823 142.394 16.3516 142.644 16.5859C142.894 16.8177 143.093 17.125 143.241 17.5078C143.39 17.8906 143.464 18.362 143.464 18.9219V19.3125H138.839V18.5156H142.526C142.526 18.1771 142.459 17.875 142.323 17.6094C142.19 17.3437 142 17.1341 141.753 16.9805C141.508 16.8268 141.219 16.75 140.886 16.75C140.519 16.75 140.201 16.8411 139.933 17.0234C139.667 17.2031 139.463 17.4375 139.319 17.7266C139.176 18.0156 139.104 18.3255 139.104 18.6562V19.1875C139.104 19.6406 139.183 20.0247 139.339 20.3398C139.498 20.6523 139.718 20.8906 139.999 21.0547C140.28 21.2161 140.607 21.2969 140.979 21.2969C141.222 21.2969 141.44 21.263 141.636 21.1953C141.834 21.125 142.004 21.0208 142.147 20.8828C142.291 20.7422 142.401 20.5677 142.479 20.3594L143.37 20.6094C143.276 20.9115 143.119 21.1771 142.897 21.4062C142.676 21.6328 142.403 21.8099 142.077 21.9375C141.752 22.0625 141.386 22.125 140.979 22.125Z" fill="white"/>
<defs>
<linearGradient id="paint0_linear_0_1" x1="518.394" y1="138.082" x2="326.423" y2="361.941" gradientUnits="userSpaceOnUse">
<stop stop-color="white"/>
<stop offset="0.523958" stop-color="#D795FF"/>
<stop offset="1" stop-color="#7BC2FE"/>
</linearGradient>
</defs>
</svg>
